M48
; DRILL file {KiCad (6.0.8)} date Thu Dec 15 00:43:06 2022
; FORMAT={-:-/ absolute / inch / decimal}
; #@! TF.CreationDate,2022-12-15T00:43:06+01:00
; #@! TF.GenerationSoftware,Kicad,Pcbnew,(6.0.8)
; #@! TF.FileFunction,Plated,1,2,PTH
FMAT,2
INCH
; #@! TA.AperFunction,Plated,PTH,ViaDrill
T1C0.0079
; #@! TA.AperFunction,Plated,PTH,ComponentDrill
T2C0.0394
%
G90
G05
T1
X5.6187Y-2.6758
X5.6248Y-2.1776
X5.6445Y-2.778
X5.6583Y-2.3606
X5.6858Y-3.3232
X5.6957Y-3.7386
X5.6978Y-2.6328
X5.7321Y-2.3488
X5.7325Y-2.4327
X5.7331Y-2.6953
X5.7331Y-3.2602
X5.7547Y-2.2307
X5.7606Y-2.7241
X5.7626Y-3.5417
X5.7668Y-2.3663
X5.7705Y-2.9453
X5.7744Y-2.9827
X5.802Y-3.3882
X5.8049Y-2.9502
X5.8059Y-2.4394
X5.8098Y-2.779
X5.8148Y-2.6165
X5.8394Y-3.5024
X5.8453Y-2.7798
X5.8465Y-3.0991
X5.8522Y-2.4567
X5.8594Y-2.2494
X5.8656Y-2.8735
X5.8683Y-2.3587
X5.8709Y-3.3094
X5.8719Y-2.5417
X5.8729Y-2.9541
X5.8733Y-2.7352
X5.8906Y-3.1421
X5.8984Y-3.3449
X5.9004Y-2.2386
X5.9004Y-2.6028
X5.9004Y-2.9846
X5.9112Y-2.462
X5.9156Y-2.1756
X5.9299Y-2.9118
X5.9407Y-2.7959
X5.9408Y-2.6101
X5.9496Y-2.8685
X5.9496Y-3.1894
X5.9524Y-3.2831
X5.9536Y-2.4991
X5.9654Y-2.8213
X5.9693Y-2.9453
X5.9693Y-3.0713
X5.9706Y-2.4699
X5.9791Y-3.3783
X5.987Y-2.4197
X5.989Y-2.8843
X6.0047Y-3.0713
X6.0323Y-2.5919
X6.0579Y-2.6303
X6.0579Y-3.024
X6.0874Y-3.5791
X6.0992Y-2.3567
X6.1228Y-2.2071
T2
X5.5906Y-2.2268
X5.5906Y-2.3268
X5.5906Y-2.4268
X5.5906Y-2.5268
X5.5906Y-2.6268
X5.5906Y-2.7268
X5.5906Y-2.8268
X5.5906Y-2.9268
X5.5906Y-3.0268
X5.5906Y-3.1268
X5.5906Y-3.2268
X5.5906Y-3.3268
X5.5906Y-3.4268
X5.5906Y-3.5268
X5.5906Y-3.6268
X5.7911Y-3.6238
X5.7911Y-3.7238
X5.8911Y-3.6238
X5.8911Y-3.7238
X5.9911Y-3.6238
X5.9911Y-3.7238
X6.1906Y-2.2268
X6.1906Y-2.3268
X6.1906Y-2.4268
X6.1906Y-2.5268
X6.1906Y-2.6268
X6.1906Y-2.7268
X6.1906Y-2.8268
X6.1906Y-2.9268
X6.1906Y-3.0268
X6.1906Y-3.1268
X6.1906Y-3.2268
X6.1906Y-3.3268
X6.1906Y-3.4268
X6.1906Y-3.5268
X6.1906Y-3.6268
T0
M30
