%TF.GenerationSoftware,KiCad,Pcbnew,6.0.11-2627ca5db0~126~ubuntu22.04.1*%
%TF.CreationDate,2023-02-07T21:12:31+01:00*%
%TF.ProjectId,Dact,44616374-2e6b-4696-9361-645f70636258,rev?*%
%TF.SameCoordinates,Original*%
%TF.FileFunction,Legend,Top*%
%TF.FilePolarity,Positive*%
%FSLAX46Y46*%
G04 Gerber Fmt 4.6, Leading zero omitted, Abs format (unit mm)*
G04 Created by KiCad (PCBNEW 6.0.11-2627ca5db0~126~ubuntu22.04.1) date 2023-02-07 21:12:31*
%MOMM*%
%LPD*%
G01*
G04 APERTURE LIST*
%ADD10C,0.200000*%
%ADD11C,0.310000*%
%ADD12C,0.120000*%
%ADD13C,0.100000*%
%ADD14C,0.150000*%
G04 APERTURE END LIST*
D10*
X143170000Y-81277857D02*
X143170000Y-80077857D01*
X143455714Y-80077857D01*
X143627142Y-80135000D01*
X143741428Y-80249285D01*
X143798571Y-80363571D01*
X143855714Y-80592142D01*
X143855714Y-80763571D01*
X143798571Y-80992142D01*
X143741428Y-81106428D01*
X143627142Y-81220714D01*
X143455714Y-81277857D01*
X143170000Y-81277857D01*
X144884285Y-81277857D02*
X144884285Y-80649285D01*
X144827142Y-80535000D01*
X144712857Y-80477857D01*
X144484285Y-80477857D01*
X144370000Y-80535000D01*
X144884285Y-81220714D02*
X144770000Y-81277857D01*
X144484285Y-81277857D01*
X144370000Y-81220714D01*
X144312857Y-81106428D01*
X144312857Y-80992142D01*
X144370000Y-80877857D01*
X144484285Y-80820714D01*
X144770000Y-80820714D01*
X144884285Y-80763571D01*
X145970000Y-81220714D02*
X145855714Y-81277857D01*
X145627142Y-81277857D01*
X145512857Y-81220714D01*
X145455714Y-81163571D01*
X145398571Y-81049285D01*
X145398571Y-80706428D01*
X145455714Y-80592142D01*
X145512857Y-80535000D01*
X145627142Y-80477857D01*
X145855714Y-80477857D01*
X145970000Y-80535000D01*
X146312857Y-80477857D02*
X146770000Y-80477857D01*
X146484285Y-80077857D02*
X146484285Y-81106428D01*
X146541428Y-81220714D01*
X146655714Y-81277857D01*
X146770000Y-81277857D01*
X147970000Y-80477857D02*
X148255714Y-81277857D01*
X148541428Y-80477857D01*
X149627142Y-81277857D02*
X148941428Y-81277857D01*
X149284285Y-81277857D02*
X149284285Y-80077857D01*
X149170000Y-80249285D01*
X149055714Y-80363571D01*
X148941428Y-80420714D01*
%TO.C,J2*%
D11*
X145750000Y-94585000D02*
G75*
G03*
X145750000Y-94585000I-155000J0D01*
G01*
%TO.C,G\u002A\u002A\u002A*%
G36*
X153750128Y-65937623D02*
G01*
X153774572Y-65884736D01*
X153801189Y-65834807D01*
X153829327Y-65789176D01*
X153849055Y-65761209D01*
X153878815Y-65724923D01*
X153911834Y-65690801D01*
X153946808Y-65660029D01*
X153982437Y-65633792D01*
X154003007Y-65621052D01*
X154014792Y-65613943D01*
X154023052Y-65607604D01*
X154029611Y-65600149D01*
X154036292Y-65589693D01*
X154040482Y-65582332D01*
X154256027Y-65582332D01*
X154257812Y-65584576D01*
X154264420Y-65587193D01*
X154274155Y-65589806D01*
X154285321Y-65592035D01*
X154296222Y-65593502D01*
X154305160Y-65593827D01*
X154306873Y-65593688D01*
X154315378Y-65592159D01*
X154327866Y-65589287D01*
X154342034Y-65585613D01*
X154346253Y-65584440D01*
X154359439Y-65580647D01*
X154367090Y-65578102D01*
X154369994Y-65576291D01*
X154368937Y-65574701D01*
X154364708Y-65572817D01*
X154364302Y-65572656D01*
X154349174Y-65568003D01*
X154332623Y-65564972D01*
X154317498Y-65563991D01*
X154310356Y-65564554D01*
X154300136Y-65566750D01*
X154288014Y-65570062D01*
X154275766Y-65573909D01*
X154265171Y-65577708D01*
X154258006Y-65580879D01*
X154256027Y-65582332D01*
X154040482Y-65582332D01*
X154040495Y-65582310D01*
X154066950Y-65541253D01*
X154097444Y-65505279D01*
X154131780Y-65474529D01*
X154169764Y-65449142D01*
X154211199Y-65429260D01*
X154255892Y-65415022D01*
X154280620Y-65409849D01*
X154318390Y-65406498D01*
X154357368Y-65409029D01*
X154396657Y-65417106D01*
X154435361Y-65430394D01*
X154472584Y-65448558D01*
X154507428Y-65471262D01*
X154538997Y-65498173D01*
X154551479Y-65511105D01*
X154563223Y-65525024D01*
X154576014Y-65541787D01*
X154588612Y-65559611D01*
X154599772Y-65576716D01*
X154608253Y-65591321D01*
X154610363Y-65595523D01*
X154615600Y-65603329D01*
X154624374Y-65611034D01*
X154637948Y-65619723D01*
X154639685Y-65620726D01*
X154682563Y-65648915D01*
X154723584Y-65683151D01*
X154762481Y-65723112D01*
X154798984Y-65768474D01*
X154832826Y-65818916D01*
X154863736Y-65874116D01*
X154881158Y-65910252D01*
X154891744Y-65934586D01*
X154902739Y-65961702D01*
X154913508Y-65989892D01*
X154923422Y-66017446D01*
X154931846Y-66042656D01*
X154938150Y-66063812D01*
X154938625Y-66065588D01*
X154941904Y-66076552D01*
X154944990Y-66084473D01*
X154947246Y-66087728D01*
X154947341Y-66087739D01*
X154951063Y-66085059D01*
X154957768Y-66077474D01*
X154966993Y-66065663D01*
X154978274Y-66050306D01*
X154991147Y-66032082D01*
X155005149Y-66011673D01*
X155019818Y-65989757D01*
X155034688Y-65967014D01*
X155049298Y-65944126D01*
X155063183Y-65921770D01*
X155075880Y-65900629D01*
X155081734Y-65890559D01*
X155108474Y-65842253D01*
X155133656Y-65793118D01*
X155157515Y-65742533D01*
X155180283Y-65689875D01*
X155202194Y-65634524D01*
X155223483Y-65575856D01*
X155244384Y-65513251D01*
X155265129Y-65446086D01*
X155285952Y-65373739D01*
X155307089Y-65295589D01*
X155310937Y-65280885D01*
X155328859Y-65215850D01*
X155347321Y-65156563D01*
X155366653Y-65102210D01*
X155387185Y-65051981D01*
X155409246Y-65005064D01*
X155433167Y-64960644D01*
X155456608Y-64922054D01*
X155473639Y-64896089D01*
X155490507Y-64871778D01*
X155507888Y-64848303D01*
X155526461Y-64824844D01*
X155546904Y-64800582D01*
X155569895Y-64774698D01*
X155596113Y-64746374D01*
X155626235Y-64714789D01*
X155639777Y-64700803D01*
X155661639Y-64678244D01*
X155680749Y-64658343D01*
X155697861Y-64640259D01*
X155713726Y-64623147D01*
X155729096Y-64606164D01*
X155744723Y-64588468D01*
X155761360Y-64569215D01*
X155779757Y-64547562D01*
X155800667Y-64522665D01*
X155824842Y-64493683D01*
X155829627Y-64487933D01*
X155848522Y-64465419D01*
X155867663Y-64442976D01*
X155886261Y-64421504D01*
X155903525Y-64401903D01*
X155918666Y-64385072D01*
X155930896Y-64371911D01*
X155936268Y-64366390D01*
X155971108Y-64334751D01*
X156005824Y-64309666D01*
X156040441Y-64291124D01*
X156074981Y-64279118D01*
X156109467Y-64273638D01*
X156143924Y-64274676D01*
X156167317Y-64279092D01*
X156189386Y-64285710D01*
X156207114Y-64293798D01*
X156222721Y-64304657D01*
X156238428Y-64319590D01*
X156240908Y-64322239D01*
X156257017Y-64342975D01*
X156271842Y-64368487D01*
X156284448Y-64396999D01*
X156291810Y-64419018D01*
X156303183Y-64466374D01*
X156311699Y-64519088D01*
X156317400Y-64576630D01*
X156320324Y-64638469D01*
X156320513Y-64704075D01*
X156318006Y-64772917D01*
X156312844Y-64844463D01*
X156305068Y-64918184D01*
X156294718Y-64993549D01*
X156281834Y-65070027D01*
X156266457Y-65147087D01*
X156248626Y-65224198D01*
X156228383Y-65300830D01*
X156223431Y-65318191D01*
X156189800Y-65425659D01*
X156152086Y-65529835D01*
X156110488Y-65630305D01*
X156065207Y-65726652D01*
X156016442Y-65818460D01*
X155964392Y-65905315D01*
X155909257Y-65986801D01*
X155889621Y-66013505D01*
X155851105Y-66062406D01*
X155809139Y-66111406D01*
X155764869Y-66159316D01*
X155719442Y-66204949D01*
X155674005Y-66247119D01*
X155629705Y-66284637D01*
X155621418Y-66291214D01*
X155589015Y-66316787D01*
X155561007Y-66339257D01*
X155536494Y-66359402D01*
X155514580Y-66378002D01*
X155494365Y-66395834D01*
X155474953Y-66413678D01*
X155455443Y-66432312D01*
X155434940Y-66452514D01*
X155432323Y-66455127D01*
X155395732Y-66492646D01*
X155362569Y-66528768D01*
X155331168Y-66565424D01*
X155299864Y-66604543D01*
X155274403Y-66638058D01*
X155236093Y-66686133D01*
X155195318Y-66730618D01*
X155151444Y-66772016D01*
X155103836Y-66810827D01*
X155051858Y-66847552D01*
X154994877Y-66882692D01*
X154932258Y-66916748D01*
X154902637Y-66931577D01*
X154842082Y-66961176D01*
X154848905Y-66978146D01*
X154852111Y-66986498D01*
X154857027Y-66999780D01*
X154863193Y-67016727D01*
X154870150Y-67036077D01*
X154877439Y-67056563D01*
X154878338Y-67059109D01*
X154893114Y-67100751D01*
X154906111Y-67136939D01*
X154917641Y-67168440D01*
X154928015Y-67196021D01*
X154937542Y-67220450D01*
X154946534Y-67242493D01*
X154955301Y-67262920D01*
X154964154Y-67282496D01*
X154973402Y-67301990D01*
X154983357Y-67322169D01*
X154990467Y-67336239D01*
X155022771Y-67394841D01*
X155058106Y-67449375D01*
X155097016Y-67500425D01*
X155140045Y-67548575D01*
X155187733Y-67594411D01*
X155240626Y-67638518D01*
X155299265Y-67681479D01*
X155330507Y-67702450D01*
X155356650Y-67719581D01*
X155378080Y-67733792D01*
X155395614Y-67745701D01*
X155410069Y-67755923D01*
X155422260Y-67765078D01*
X155433004Y-67773780D01*
X155443118Y-67782649D01*
X155453417Y-67792300D01*
X155464719Y-67803352D01*
X155467071Y-67805685D01*
X155510414Y-67853351D01*
X155548900Y-67905386D01*
X155582484Y-67961697D01*
X155611121Y-68022188D01*
X155634766Y-68086767D01*
X155653375Y-68155339D01*
X155665947Y-68221481D01*
X155668890Y-68245491D01*
X155671157Y-68273955D01*
X155672723Y-68305308D01*
X155673566Y-68337982D01*
X155673664Y-68370411D01*
X155672994Y-68401027D01*
X155671533Y-68428265D01*
X155669263Y-68450530D01*
X155657000Y-68519197D01*
X155639917Y-68583988D01*
X155618118Y-68644743D01*
X155591705Y-68701306D01*
X155560781Y-68753519D01*
X155525448Y-68801224D01*
X155485810Y-68844265D01*
X155441968Y-68882482D01*
X155394025Y-68915719D01*
X155350742Y-68939634D01*
X155297181Y-68962482D01*
X155240443Y-68979734D01*
X155180791Y-68991385D01*
X155118485Y-68997430D01*
X155053786Y-68997864D01*
X154986955Y-68992681D01*
X154918254Y-68981878D01*
X154847942Y-68965449D01*
X154796402Y-68950112D01*
X154769070Y-68941257D01*
X154747177Y-68952841D01*
X154711113Y-68971872D01*
X154680114Y-68988096D01*
X154653479Y-69001845D01*
X154630508Y-69013450D01*
X154610502Y-69023243D01*
X154592762Y-69031556D01*
X154576587Y-69038721D01*
X154561278Y-69045071D01*
X154546134Y-69050936D01*
X154530457Y-69056649D01*
X154522203Y-69059551D01*
X154470452Y-69075195D01*
X154417873Y-69086554D01*
X154365774Y-69093450D01*
X154315458Y-69095705D01*
X154272416Y-69093584D01*
X154220335Y-69085921D01*
X154166204Y-69073359D01*
X154111749Y-69056366D01*
X154060234Y-69036083D01*
X154044368Y-69028872D01*
X154024974Y-69019551D01*
X154001628Y-69007905D01*
X153973907Y-68993719D01*
X153941388Y-68976780D01*
X153903648Y-68956873D01*
X153896418Y-68953038D01*
X153874840Y-68941583D01*
X153829145Y-68955121D01*
X153770906Y-68971084D01*
X153716555Y-68983197D01*
X153664818Y-68991666D01*
X153614422Y-68996698D01*
X153564094Y-68998499D01*
X153560988Y-68998509D01*
X153496148Y-68995634D01*
X153434180Y-68986905D01*
X153375249Y-68972433D01*
X153319519Y-68952330D01*
X153267153Y-68926707D01*
X153218317Y-68895676D01*
X153173174Y-68859349D01*
X153131888Y-68817837D01*
X153094624Y-68771252D01*
X153061546Y-68719705D01*
X153032818Y-68663309D01*
X153018773Y-68629859D01*
X152997839Y-68567353D01*
X152982500Y-68501464D01*
X152972751Y-68432167D01*
X152969059Y-68376693D01*
X152969279Y-68326427D01*
X153126590Y-68326427D01*
X153127250Y-68384640D01*
X153132783Y-68441410D01*
X153143052Y-68496234D01*
X153157921Y-68548609D01*
X153177254Y-68598030D01*
X153200914Y-68643994D01*
X153228765Y-68685999D01*
X153260671Y-68723539D01*
X153286717Y-68748069D01*
X153326129Y-68777435D01*
X153368918Y-68801189D01*
X153415051Y-68819329D01*
X153464497Y-68831852D01*
X153517226Y-68838755D01*
X153573205Y-68840038D01*
X153632404Y-68835696D01*
X153694791Y-68825727D01*
X153760334Y-68810130D01*
X153825696Y-68790029D01*
X153843011Y-68784198D01*
X153857345Y-68779807D01*
X153869667Y-68777036D01*
X153880942Y-68776065D01*
X153892138Y-68777075D01*
X153904222Y-68780245D01*
X153918160Y-68785756D01*
X153934919Y-68793788D01*
X153955466Y-68804520D01*
X153980769Y-68818134D01*
X153982991Y-68819333D01*
X154022522Y-68840452D01*
X154057082Y-68858434D01*
X154087292Y-68873577D01*
X154113778Y-68886177D01*
X154137160Y-68896532D01*
X154158061Y-68904938D01*
X154175964Y-68911315D01*
X154220098Y-68924283D01*
X154261328Y-68932662D01*
X154301268Y-68936619D01*
X154341534Y-68936325D01*
X154379069Y-68932609D01*
X154401516Y-68929020D01*
X154423625Y-68924334D01*
X154446059Y-68918282D01*
X154469480Y-68910598D01*
X154494551Y-68901012D01*
X154521933Y-68889257D01*
X154552291Y-68875065D01*
X154586286Y-68858167D01*
X154624580Y-68838296D01*
X154663524Y-68817510D01*
X154688584Y-68804022D01*
X154708865Y-68793411D01*
X154725401Y-68785510D01*
X154739226Y-68780146D01*
X154751372Y-68777150D01*
X154762874Y-68776351D01*
X154774765Y-68777580D01*
X154788079Y-68780666D01*
X154803849Y-68785439D01*
X154822093Y-68791396D01*
X154864571Y-68804842D01*
X154902382Y-68815683D01*
X154936778Y-68824148D01*
X154969012Y-68830464D01*
X155000338Y-68834861D01*
X155032008Y-68837567D01*
X155065274Y-68838809D01*
X155082984Y-68838953D01*
X155116315Y-68838427D01*
X155144959Y-68836671D01*
X155170725Y-68833405D01*
X155195421Y-68828348D01*
X155220855Y-68821223D01*
X155241122Y-68814485D01*
X155285224Y-68795640D01*
X155326202Y-68771151D01*
X155363837Y-68741258D01*
X155397911Y-68706200D01*
X155428204Y-68666219D01*
X155454498Y-68621554D01*
X155476576Y-68572446D01*
X155486515Y-68544628D01*
X155501179Y-68490762D01*
X155511129Y-68433795D01*
X155516174Y-68375385D01*
X155516121Y-68317188D01*
X155514982Y-68298703D01*
X155507058Y-68232386D01*
X155493813Y-68169398D01*
X155475316Y-68109926D01*
X155451639Y-68054157D01*
X155422853Y-68002280D01*
X155389029Y-67954480D01*
X155380068Y-67943514D01*
X155361839Y-67923339D01*
X155342013Y-67904609D01*
X155319338Y-67886281D01*
X155292560Y-67867312D01*
X155273320Y-67854756D01*
X155204989Y-67809119D01*
X155142765Y-67762980D01*
X155086195Y-67715926D01*
X155034822Y-67667547D01*
X154988192Y-67617430D01*
X154945850Y-67565165D01*
X154931386Y-67545490D01*
X154905243Y-67506495D01*
X154878762Y-67462280D01*
X154852611Y-67414109D01*
X154827456Y-67363247D01*
X154803964Y-67310960D01*
X154790460Y-67278211D01*
X154782101Y-67257637D01*
X154775706Y-67242964D01*
X154771105Y-67233887D01*
X154768126Y-67230100D01*
X154766600Y-67231297D01*
X154766305Y-67234946D01*
X154765041Y-67242046D01*
X154761629Y-67253560D01*
X154756643Y-67267932D01*
X154750651Y-67283602D01*
X154744227Y-67299012D01*
X154737942Y-67312604D01*
X154737527Y-67313437D01*
X154712735Y-67355689D01*
X154682436Y-67394830D01*
X154647148Y-67430354D01*
X154607389Y-67461752D01*
X154563676Y-67488517D01*
X154553395Y-67493825D01*
X154528843Y-67504761D01*
X154499863Y-67515502D01*
X154468572Y-67525369D01*
X154437089Y-67533684D01*
X154413527Y-67538698D01*
X154393038Y-67542086D01*
X154373352Y-67544313D01*
X154352172Y-67545562D01*
X154327203Y-67546016D01*
X154321640Y-67546027D01*
X154266144Y-67543243D01*
X154212250Y-67535049D01*
X154160485Y-67521686D01*
X154111376Y-67503390D01*
X154065449Y-67480401D01*
X154023231Y-67452957D01*
X153985248Y-67421298D01*
X153952028Y-67385661D01*
X153943335Y-67374584D01*
X153941781Y-67372287D01*
X154224832Y-67372287D01*
X154228046Y-67375040D01*
X154237453Y-67378182D01*
X154252700Y-67381631D01*
X154273432Y-67385304D01*
X154295387Y-67388582D01*
X154307160Y-67389264D01*
X154323573Y-67388929D01*
X154342804Y-67387707D01*
X154363032Y-67385728D01*
X154382433Y-67383120D01*
X154389735Y-67381897D01*
X154402476Y-67379254D01*
X154412317Y-67376532D01*
X154417795Y-67374167D01*
X154418449Y-67373324D01*
X154416081Y-67367651D01*
X154409821Y-67359274D01*
X154400934Y-67349545D01*
X154390686Y-67339819D01*
X154380344Y-67331447D01*
X154377316Y-67329339D01*
X154364069Y-67321751D01*
X154349081Y-67314889D01*
X154340902Y-67311932D01*
X154329493Y-67308728D01*
X154321221Y-67307712D01*
X154313070Y-67308799D01*
X154305316Y-67310913D01*
X154292509Y-67315293D01*
X154279770Y-67320539D01*
X154275705Y-67322484D01*
X154267547Y-67327752D01*
X154257610Y-67335753D01*
X154247160Y-67345249D01*
X154237465Y-67355000D01*
X154229789Y-67363765D01*
X154225399Y-67370306D01*
X154224832Y-67372287D01*
X153941781Y-67372287D01*
X153924943Y-67347403D01*
X153907788Y-67316868D01*
X153893303Y-67285702D01*
X153885238Y-67264118D01*
X153881062Y-67251429D01*
X153877540Y-67240789D01*
X153875277Y-67234023D01*
X153874940Y-67233036D01*
X153873238Y-67234280D01*
X153869571Y-67240770D01*
X153864360Y-67251640D01*
X153858022Y-67266021D01*
X153851957Y-67280620D01*
X153819514Y-67355691D01*
X153785188Y-67424975D01*
X153748463Y-67489105D01*
X153708823Y-67548713D01*
X153665753Y-67604431D01*
X153618738Y-67656892D01*
X153567262Y-67706727D01*
X153510809Y-67754570D01*
X153448865Y-67801053D01*
X153401137Y-67833663D01*
X153373148Y-67852245D01*
X153349987Y-67867976D01*
X153330892Y-67881449D01*
X153315102Y-67893256D01*
X153301858Y-67903988D01*
X153290398Y-67914240D01*
X153279962Y-67924602D01*
X153269789Y-67935667D01*
X153269016Y-67936540D01*
X153234928Y-67979999D01*
X153205034Y-68028208D01*
X153179562Y-68080691D01*
X153158736Y-68136971D01*
X153142785Y-68196569D01*
X153140433Y-68207687D01*
X153130939Y-68267275D01*
X153126590Y-68326427D01*
X152969279Y-68326427D01*
X152969365Y-68306809D01*
X152975250Y-68237766D01*
X152986538Y-68170106D01*
X153003049Y-68104373D01*
X153024605Y-68041110D01*
X153051027Y-67980863D01*
X153082137Y-67924174D01*
X153117757Y-67871587D01*
X153146516Y-67836087D01*
X153159893Y-67821066D01*
X153172428Y-67807739D01*
X153184890Y-67795488D01*
X153198045Y-67783696D01*
X153212659Y-67771746D01*
X153229499Y-67759021D01*
X153249332Y-67744903D01*
X153272925Y-67728775D01*
X153301044Y-67710019D01*
X153312532Y-67702434D01*
X153365942Y-67665671D01*
X153414840Y-67628568D01*
X153459631Y-67590569D01*
X153500715Y-67551122D01*
X153538497Y-67509670D01*
X153573379Y-67465660D01*
X153605764Y-67418537D01*
X153636053Y-67367747D01*
X153664651Y-67312736D01*
X153691960Y-67252948D01*
X153718382Y-67187831D01*
X153741797Y-67123735D01*
X154021908Y-67123735D01*
X154022299Y-67137437D01*
X154024399Y-67165096D01*
X154028180Y-67188590D01*
X154034181Y-67210218D01*
X154042937Y-67232278D01*
X154046041Y-67239028D01*
X154052206Y-67250937D01*
X154059640Y-67263598D01*
X154067449Y-67275686D01*
X154074738Y-67285873D01*
X154080611Y-67292834D01*
X154083988Y-67295248D01*
X154086635Y-67292793D01*
X154091584Y-67286275D01*
X154096672Y-67278758D01*
X154121208Y-67246755D01*
X154150822Y-67218160D01*
X154184658Y-67193572D01*
X154221865Y-67173588D01*
X154261589Y-67158802D01*
X154272437Y-67155830D01*
X154295319Y-67150741D01*
X154314789Y-67148375D01*
X154333352Y-67148732D01*
X154353512Y-67151815D01*
X154371093Y-67155893D01*
X154410865Y-67169064D01*
X154448550Y-67187598D01*
X154483230Y-67210854D01*
X154513993Y-67238191D01*
X154539921Y-67268968D01*
X154546609Y-67278758D01*
X154552595Y-67287541D01*
X154557255Y-67293549D01*
X154559293Y-67295338D01*
X154562805Y-67292630D01*
X154568609Y-67285493D01*
X154575828Y-67275243D01*
X154583579Y-67263195D01*
X154590985Y-67250665D01*
X154597165Y-67238970D01*
X154597652Y-67237959D01*
X154605885Y-67219557D01*
X154611905Y-67202856D01*
X154616023Y-67186213D01*
X154618551Y-67167987D01*
X154619801Y-67146536D01*
X154620084Y-67120218D01*
X154620082Y-67119819D01*
X154619789Y-67096608D01*
X154618996Y-67078212D01*
X154617549Y-67062893D01*
X154615297Y-67048912D01*
X154612874Y-67037778D01*
X154596211Y-66980690D01*
X154573168Y-66922676D01*
X154543832Y-66863925D01*
X154508290Y-66804628D01*
X154500268Y-66792454D01*
X154486032Y-66771141D01*
X154474976Y-66754670D01*
X154473993Y-66753248D01*
X154899548Y-66753248D01*
X154901938Y-66753803D01*
X154906933Y-66751537D01*
X154914582Y-66747107D01*
X154917661Y-66745304D01*
X154930799Y-66737398D01*
X154946305Y-66727683D01*
X154961139Y-66718071D01*
X154963204Y-66716698D01*
X155019025Y-66675933D01*
X155069633Y-66631529D01*
X155115600Y-66582943D01*
X155149486Y-66540607D01*
X155178039Y-66503044D01*
X155205731Y-66468480D01*
X155233839Y-66435447D01*
X155263643Y-66402475D01*
X155296420Y-66368098D01*
X155323897Y-66340338D01*
X155342364Y-66322037D01*
X155359246Y-66305608D01*
X155375279Y-66290413D01*
X155391199Y-66275812D01*
X155407745Y-66261168D01*
X155425652Y-66245842D01*
X155445658Y-66229194D01*
X155468499Y-66210586D01*
X155494912Y-66189379D01*
X155525634Y-66164934D01*
X155532571Y-66159434D01*
X155572270Y-66125997D01*
X155613395Y-66087681D01*
X155654830Y-66045661D01*
X155695460Y-66001111D01*
X155734173Y-65955203D01*
X155768521Y-65910912D01*
X155822096Y-65833725D01*
X155872545Y-65751175D01*
X155919670Y-65663772D01*
X155963275Y-65572025D01*
X156003160Y-65476444D01*
X156039129Y-65377542D01*
X156070984Y-65275826D01*
X156098526Y-65171808D01*
X156121558Y-65065998D01*
X156139883Y-64958906D01*
X156141325Y-64949005D01*
X156148729Y-64893481D01*
X156154300Y-64842175D01*
X156158191Y-64793047D01*
X156160555Y-64744061D01*
X156161547Y-64693177D01*
X156161599Y-64679910D01*
X156161002Y-64629554D01*
X156159051Y-64585047D01*
X156155679Y-64545798D01*
X156150815Y-64511219D01*
X156144389Y-64480722D01*
X156136333Y-64453716D01*
X156134267Y-64448004D01*
X156130303Y-64437890D01*
X156127145Y-64432625D01*
X156123328Y-64430899D01*
X156117386Y-64431401D01*
X156115958Y-64431630D01*
X156106483Y-64434186D01*
X156096124Y-64439107D01*
X156084533Y-64446729D01*
X156071362Y-64457387D01*
X156056261Y-64471418D01*
X156038881Y-64489158D01*
X156018875Y-64510941D01*
X155995892Y-64537105D01*
X155969585Y-64567983D01*
X155950068Y-64591305D01*
X155924831Y-64621555D01*
X155902904Y-64647624D01*
X155883468Y-64670429D01*
X155865704Y-64690890D01*
X155848791Y-64709927D01*
X155831911Y-64728456D01*
X155814242Y-64747398D01*
X155794966Y-64767672D01*
X155773263Y-64790195D01*
X155765375Y-64798334D01*
X155729272Y-64835990D01*
X155697626Y-64870045D01*
X155669912Y-64901176D01*
X155645610Y-64930060D01*
X155624197Y-64957374D01*
X155605152Y-64983797D01*
X155587952Y-65010004D01*
X155572076Y-65036673D01*
X155557002Y-65064481D01*
X155550658Y-65076913D01*
X155537448Y-65104206D01*
X155525295Y-65131517D01*
X155513886Y-65159752D01*
X155502909Y-65189818D01*
X155492048Y-65222624D01*
X155480990Y-65259075D01*
X155469423Y-65300080D01*
X155457031Y-65346546D01*
X155455740Y-65351506D01*
X155427853Y-65453632D01*
X155398732Y-65549752D01*
X155368143Y-65640350D01*
X155335854Y-65725907D01*
X155301630Y-65806904D01*
X155265239Y-65883825D01*
X155226446Y-65957149D01*
X155185018Y-66027361D01*
X155140722Y-66094941D01*
X155093324Y-66160370D01*
X155042591Y-66224132D01*
X155019987Y-66250816D01*
X154982646Y-66294112D01*
X154981481Y-66367314D01*
X154977898Y-66442457D01*
X154969510Y-66513749D01*
X154956166Y-66581966D01*
X154937715Y-66647883D01*
X154915104Y-66709612D01*
X154907542Y-66728053D01*
X154902398Y-66741033D01*
X154899717Y-66749211D01*
X154899548Y-66753248D01*
X154473993Y-66753248D01*
X154466554Y-66742481D01*
X154460221Y-66734011D01*
X154455433Y-66728700D01*
X154451644Y-66725984D01*
X154448310Y-66725304D01*
X154444886Y-66726097D01*
X154440827Y-66727801D01*
X154438486Y-66728781D01*
X154419088Y-66733452D01*
X154398498Y-66733156D01*
X154378478Y-66728288D01*
X154360790Y-66719247D01*
X154348929Y-66708604D01*
X154343433Y-66700351D01*
X154337206Y-66688436D01*
X154331590Y-66675427D01*
X154331548Y-66675318D01*
X154327197Y-66664273D01*
X154323727Y-66656096D01*
X154321783Y-66652289D01*
X154321640Y-66652183D01*
X154320051Y-66655009D01*
X154316817Y-66662485D01*
X154312582Y-66673109D01*
X154311733Y-66675318D01*
X154306127Y-66688326D01*
X154299900Y-66700260D01*
X154294392Y-66708556D01*
X154294352Y-66708604D01*
X154280362Y-66720556D01*
X154262493Y-66728995D01*
X154242673Y-66733466D01*
X154222829Y-66733519D01*
X154206276Y-66729302D01*
X154198160Y-66726135D01*
X154192820Y-66724459D01*
X154192223Y-66724380D01*
X154188623Y-66727074D01*
X154182225Y-66734617D01*
X154173560Y-66746203D01*
X154163158Y-66761025D01*
X154151549Y-66778274D01*
X154139264Y-66797144D01*
X154126834Y-66816827D01*
X154114788Y-66836516D01*
X154103657Y-66855405D01*
X154093972Y-66872685D01*
X154090484Y-66879227D01*
X154065174Y-66932019D01*
X154045758Y-66982498D01*
X154032140Y-67031033D01*
X154024222Y-67077989D01*
X154021908Y-67123735D01*
X153741797Y-67123735D01*
X153744320Y-67116829D01*
X153750106Y-67100058D01*
X153759864Y-67071658D01*
X153768110Y-67048074D01*
X153775361Y-67027879D01*
X153782137Y-67009646D01*
X153788955Y-66991950D01*
X153794419Y-66978146D01*
X153801199Y-66961176D01*
X153740643Y-66931577D01*
X153675332Y-66897840D01*
X153615938Y-66863240D01*
X153561829Y-66827277D01*
X153512369Y-66789449D01*
X153466923Y-66749256D01*
X153424858Y-66706196D01*
X153385537Y-66659769D01*
X153368877Y-66638058D01*
X153319304Y-66574272D01*
X153269164Y-66515460D01*
X153217220Y-66460362D01*
X153162234Y-66407715D01*
X153102967Y-66356257D01*
X153053281Y-66316374D01*
X152981331Y-66257500D01*
X152915042Y-66197075D01*
X152853542Y-66134157D01*
X152795956Y-66067803D01*
X152741411Y-65997070D01*
X152693996Y-65928579D01*
X152638890Y-65839593D01*
X152587493Y-65745548D01*
X152539994Y-65646924D01*
X152496584Y-65544202D01*
X152457452Y-65437862D01*
X152422787Y-65328385D01*
X152392780Y-65216251D01*
X152367650Y-65102089D01*
X152353146Y-65022004D01*
X152341414Y-64943510D01*
X152332467Y-64867075D01*
X152326316Y-64793166D01*
X152322970Y-64722250D01*
X152322751Y-64694227D01*
X152481109Y-64694227D01*
X152482593Y-64748232D01*
X152485853Y-64804415D01*
X152490907Y-64862182D01*
X152494126Y-64891576D01*
X152508754Y-64995665D01*
X152528160Y-65099372D01*
X152552132Y-65202128D01*
X152580458Y-65303363D01*
X152612924Y-65402509D01*
X152649318Y-65498996D01*
X152689428Y-65592255D01*
X152733041Y-65681715D01*
X152779945Y-65766809D01*
X152829926Y-65846966D01*
X152874596Y-65910692D01*
X152917404Y-65966010D01*
X152960840Y-66016986D01*
X153006132Y-66064869D01*
X153054505Y-66110909D01*
X153107188Y-66156357D01*
X153146808Y-66188116D01*
X153222436Y-66249897D01*
X153292437Y-66312978D01*
X153357738Y-66378298D01*
X153419264Y-66446796D01*
X153477942Y-66519413D01*
X153492879Y-66539127D01*
X153528689Y-66584110D01*
X153565085Y-66623786D01*
X153603315Y-66659379D01*
X153644625Y-66692113D01*
X153659777Y-66702936D01*
X153673807Y-66712484D01*
X153688908Y-66722386D01*
X153704055Y-66732015D01*
X153718226Y-66740746D01*
X153730399Y-66747953D01*
X153739550Y-66753010D01*
X153744656Y-66755291D01*
X153745327Y-66755297D01*
X153744683Y-66751979D01*
X153741905Y-66744070D01*
X153737508Y-66732983D01*
X153734976Y-66726951D01*
X153710214Y-66661418D01*
X153690184Y-66592347D01*
X153675128Y-66520985D01*
X153665283Y-66448577D01*
X153661680Y-66389382D01*
X153819691Y-66389382D01*
X153825185Y-66457203D01*
X153836729Y-66524350D01*
X153854403Y-66591617D01*
X153864001Y-66621045D01*
X153869569Y-66636313D01*
X153876303Y-66653409D01*
X153883735Y-66671295D01*
X153891398Y-66688935D01*
X153898824Y-66705291D01*
X153905546Y-66719324D01*
X153911098Y-66729998D01*
X153915011Y-66736276D01*
X153916450Y-66737506D01*
X153919313Y-66735041D01*
X153925061Y-66728410D01*
X153932728Y-66718764D01*
X153937800Y-66712074D01*
X153952075Y-66694405D01*
X153970264Y-66674136D01*
X153991021Y-66652591D01*
X154013003Y-66631098D01*
X154034863Y-66610984D01*
X154055257Y-66593575D01*
X154067906Y-66583734D01*
X154099675Y-66560311D01*
X154098338Y-66557027D01*
X154544355Y-66557027D01*
X154545942Y-66562202D01*
X154552863Y-66567899D01*
X154553074Y-66568025D01*
X154570519Y-66579709D01*
X154590834Y-66595586D01*
X154612925Y-66614623D01*
X154635697Y-66635781D01*
X154658055Y-66658027D01*
X154678905Y-66680323D01*
X154697152Y-66701634D01*
X154705316Y-66712074D01*
X154713726Y-66722951D01*
X154720780Y-66731506D01*
X154725510Y-66736594D01*
X154726831Y-66737506D01*
X154729046Y-66734709D01*
X154733406Y-66727058D01*
X154739319Y-66715662D01*
X154746189Y-66701631D01*
X154747480Y-66698915D01*
X154774525Y-66634438D01*
X154795867Y-66567706D01*
X154811357Y-66499487D01*
X154820850Y-66430546D01*
X154824199Y-66361651D01*
X154822376Y-66307361D01*
X154820707Y-66286647D01*
X154818673Y-66265568D01*
X154816495Y-66246186D01*
X154814394Y-66230566D01*
X154813714Y-66226352D01*
X154810976Y-66211682D01*
X154807441Y-66194555D01*
X154803412Y-66176241D01*
X154799189Y-66158012D01*
X154795076Y-66141137D01*
X154791372Y-66126889D01*
X154788382Y-66116539D01*
X154786416Y-66111374D01*
X154780677Y-66107177D01*
X154769462Y-66103246D01*
X154753857Y-66099821D01*
X154734949Y-66097138D01*
X154713824Y-66095437D01*
X154713798Y-66095436D01*
X154687560Y-66095131D01*
X154663632Y-66097391D01*
X154639679Y-66102620D01*
X154613363Y-66111220D01*
X154605979Y-66114007D01*
X154592393Y-66119555D01*
X154584200Y-66123782D01*
X154580504Y-66127241D01*
X154580209Y-66129931D01*
X154588645Y-66161104D01*
X154594772Y-66188261D01*
X154598844Y-66213428D01*
X154601115Y-66238630D01*
X154601838Y-66265895D01*
X154601269Y-66297248D01*
X154601252Y-66297765D01*
X154598649Y-66340793D01*
X154593603Y-66381739D01*
X154585761Y-66422424D01*
X154574766Y-66464669D01*
X154560266Y-66510296D01*
X154559438Y-66512713D01*
X154554162Y-66528096D01*
X154549588Y-66541491D01*
X154546183Y-66551530D01*
X154544413Y-66556844D01*
X154544355Y-66557027D01*
X154098338Y-66557027D01*
X154091322Y-66539794D01*
X154073833Y-66493722D01*
X154058824Y-66447796D01*
X154046697Y-66403434D01*
X154037856Y-66362053D01*
X154034279Y-66339115D01*
X154033086Y-66325185D01*
X154032371Y-66306580D01*
X154032112Y-66284963D01*
X154032235Y-66268555D01*
X154187762Y-66268555D01*
X154189841Y-66300389D01*
X154191352Y-66317343D01*
X154193563Y-66334751D01*
X154196075Y-66349616D01*
X154196926Y-66353553D01*
X154200237Y-66366817D01*
X154204219Y-66381502D01*
X154208482Y-66396320D01*
X154212633Y-66409983D01*
X154216281Y-66421205D01*
X154219034Y-66428696D01*
X154220501Y-66431170D01*
X154220521Y-66431154D01*
X154221776Y-66427729D01*
X154224415Y-66419125D01*
X154228097Y-66406494D01*
X154232483Y-66390990D01*
X154234400Y-66384088D01*
X154240489Y-66362556D01*
X154245545Y-66346267D01*
X154250093Y-66334085D01*
X154254659Y-66324876D01*
X154259768Y-66317508D01*
X154265945Y-66310845D01*
X154270120Y-66306951D01*
X154283017Y-66295299D01*
X154260066Y-66291509D01*
X154247601Y-66288816D01*
X154345079Y-66288816D01*
X154356394Y-66294621D01*
X154368099Y-66301594D01*
X154377699Y-66309882D01*
X154385784Y-66320473D01*
X154392941Y-66334356D01*
X154399757Y-66352519D01*
X154406822Y-66375951D01*
X154408592Y-66382365D01*
X154412867Y-66397249D01*
X154416743Y-66409244D01*
X154419830Y-66417255D01*
X154421743Y-66420186D01*
X154421919Y-66420104D01*
X154423853Y-66415802D01*
X154426629Y-66407030D01*
X154429536Y-66396119D01*
X154433710Y-66376754D01*
X154437371Y-66355235D01*
X154440430Y-66332685D01*
X154442795Y-66310224D01*
X154444379Y-66288977D01*
X154445091Y-66270065D01*
X154444841Y-66254612D01*
X154443540Y-66243740D01*
X154442042Y-66239589D01*
X154438814Y-66238635D01*
X154432452Y-66241918D01*
X154423272Y-66248955D01*
X154403231Y-66263118D01*
X154380035Y-66275726D01*
X154357972Y-66284635D01*
X154345079Y-66288816D01*
X154247601Y-66288816D01*
X154244953Y-66288244D01*
X154227667Y-66283375D01*
X154212438Y-66278137D01*
X154187762Y-66268555D01*
X154032235Y-66268555D01*
X154032284Y-66261996D01*
X154032863Y-66239342D01*
X154033827Y-66218663D01*
X154035151Y-66201622D01*
X154036375Y-66192177D01*
X154037307Y-66184339D01*
X154035506Y-66180228D01*
X154029444Y-66177583D01*
X154025802Y-66176518D01*
X154016864Y-66174344D01*
X154003719Y-66171591D01*
X153988636Y-66168723D01*
X153982094Y-66167567D01*
X153949707Y-66164166D01*
X153920045Y-66165919D01*
X153891513Y-66173042D01*
X153867910Y-66183008D01*
X153855292Y-66189754D01*
X153844629Y-66196402D01*
X153837577Y-66201879D01*
X153836066Y-66203608D01*
X153833767Y-66209680D01*
X153831136Y-66220646D01*
X153828520Y-66234871D01*
X153826535Y-66248551D01*
X153820168Y-66320096D01*
X153819691Y-66389382D01*
X153661680Y-66389382D01*
X153660888Y-66376368D01*
X153660820Y-66340091D01*
X153661662Y-66295452D01*
X153621467Y-66248806D01*
X153561564Y-66175414D01*
X153505657Y-66098812D01*
X153453583Y-66018672D01*
X153405179Y-65934663D01*
X153360286Y-65846458D01*
X153318739Y-65753727D01*
X153280379Y-65656141D01*
X153245042Y-65553371D01*
X153212567Y-65445087D01*
X153196065Y-65383824D01*
X153183921Y-65337556D01*
X153172912Y-65296931D01*
X153162780Y-65261178D01*
X153153272Y-65229526D01*
X153144133Y-65201205D01*
X153135107Y-65175441D01*
X153125940Y-65151465D01*
X153116377Y-65128505D01*
X153106162Y-65105790D01*
X153099518Y-65091757D01*
X153085620Y-65063779D01*
X153071671Y-65037725D01*
X153057175Y-65012943D01*
X153041639Y-64988781D01*
X153024568Y-64964587D01*
X153005465Y-64939710D01*
X152983837Y-64913498D01*
X152959189Y-64885299D01*
X152931025Y-64854461D01*
X152898851Y-64820332D01*
X152872994Y-64793428D01*
X152846562Y-64765825D01*
X152821480Y-64739020D01*
X152796909Y-64712064D01*
X152772012Y-64684010D01*
X152745950Y-64653906D01*
X152717885Y-64620805D01*
X152686978Y-64583757D01*
X152675421Y-64569788D01*
X152644269Y-64532975D01*
X152616308Y-64501850D01*
X152591504Y-64476384D01*
X152569826Y-64456547D01*
X152551240Y-64442309D01*
X152535715Y-64433642D01*
X152523217Y-64430516D01*
X152522494Y-64430504D01*
X152517904Y-64431942D01*
X152513803Y-64437083D01*
X152509264Y-64447167D01*
X152508416Y-64449373D01*
X152499651Y-64477775D01*
X152492545Y-64511934D01*
X152487119Y-64551256D01*
X152483392Y-64595143D01*
X152481382Y-64642999D01*
X152481109Y-64694227D01*
X152322751Y-64694227D01*
X152322442Y-64654795D01*
X152324742Y-64591269D01*
X152329882Y-64532139D01*
X152337872Y-64477871D01*
X152348724Y-64428935D01*
X152351471Y-64419018D01*
X152361831Y-64389431D01*
X152375101Y-64361525D01*
X152390348Y-64337078D01*
X152402373Y-64322239D01*
X152418284Y-64306589D01*
X152433765Y-64295206D01*
X152451037Y-64286788D01*
X152472319Y-64280034D01*
X152475964Y-64279092D01*
X152510413Y-64273633D01*
X152544877Y-64274686D01*
X152579378Y-64282260D01*
X152613940Y-64296362D01*
X152648586Y-64317003D01*
X152683340Y-64344190D01*
X152707013Y-64366390D01*
X152717227Y-64377053D01*
X152730803Y-64391899D01*
X152746952Y-64410029D01*
X152764885Y-64430543D01*
X152783812Y-64452542D01*
X152802944Y-64475126D01*
X152813654Y-64487933D01*
X152838341Y-64517555D01*
X152859650Y-64542965D01*
X152878358Y-64565034D01*
X152895240Y-64584631D01*
X152911074Y-64602626D01*
X152926635Y-64619888D01*
X152942700Y-64637287D01*
X152960045Y-64655693D01*
X152979448Y-64675976D01*
X153001684Y-64699005D01*
X153006945Y-64704435D01*
X153047181Y-64746742D01*
X153082719Y-64785904D01*
X153114132Y-64822684D01*
X153141997Y-64857843D01*
X153166889Y-64892143D01*
X153189381Y-64926347D01*
X153210050Y-64961216D01*
X153229470Y-64997513D01*
X153232293Y-65003092D01*
X153249275Y-65038030D01*
X153264484Y-65071958D01*
X153278352Y-65106070D01*
X153291309Y-65141566D01*
X153303786Y-65179643D01*
X153316213Y-65221498D01*
X153329021Y-65268329D01*
X153332610Y-65282018D01*
X153353731Y-65361012D01*
X153374517Y-65434116D01*
X153395214Y-65501976D01*
X153416065Y-65565241D01*
X153437314Y-65624558D01*
X153459207Y-65680573D01*
X153481986Y-65733934D01*
X153505897Y-65785289D01*
X153531185Y-65835284D01*
X153558092Y-65884568D01*
X153563813Y-65894612D01*
X153575195Y-65913948D01*
X153588092Y-65934995D01*
X153602032Y-65957061D01*
X153616540Y-65979452D01*
X153631144Y-66001475D01*
X153645369Y-66022435D01*
X153658742Y-66041639D01*
X153670789Y-66058395D01*
X153681037Y-66072007D01*
X153689012Y-66081784D01*
X153694240Y-66087031D01*
X153695696Y-66087739D01*
X153697517Y-66084778D01*
X153700707Y-66076678D01*
X153704843Y-66064614D01*
X153709503Y-66049763D01*
X153710355Y-66046919D01*
X153724205Y-66005109D01*
X153893385Y-66005109D01*
X153896485Y-66005874D01*
X153905059Y-66006565D01*
X153918016Y-66007130D01*
X153934267Y-66007516D01*
X153946712Y-66007650D01*
X153965870Y-66007970D01*
X153983717Y-66008648D01*
X153998775Y-66009599D01*
X154009566Y-66010740D01*
X154013165Y-66011423D01*
X154021297Y-66013626D01*
X154027251Y-66014783D01*
X154031369Y-66014094D01*
X154033994Y-66010763D01*
X154035469Y-66003991D01*
X154036136Y-65992981D01*
X154036337Y-65976934D01*
X154036369Y-65967780D01*
X154191914Y-65967780D01*
X154193974Y-65996519D01*
X154198791Y-66025483D01*
X154205512Y-66050625D01*
X154215110Y-66073782D01*
X154227603Y-66094186D01*
X154242251Y-66111240D01*
X154258314Y-66124347D01*
X154275052Y-66132910D01*
X154291727Y-66136333D01*
X154307597Y-66134019D01*
X154308484Y-66133693D01*
X154313836Y-66130404D01*
X154322920Y-66123490D01*
X154334678Y-66113812D01*
X154348050Y-66102229D01*
X154355461Y-66095582D01*
X154386662Y-66068037D01*
X154415022Y-66044786D01*
X154441754Y-66024963D01*
X154468070Y-66007698D01*
X154495182Y-65992124D01*
X154512136Y-65983329D01*
X154554279Y-65964686D01*
X154596900Y-65950536D01*
X154638783Y-65941199D01*
X154678708Y-65936996D01*
X154689302Y-65936783D01*
X154701879Y-65936615D01*
X154711488Y-65936167D01*
X154716618Y-65935522D01*
X154717080Y-65935243D01*
X154715308Y-65930742D01*
X154710485Y-65922027D01*
X154703345Y-65910243D01*
X154694626Y-65896536D01*
X154685062Y-65882050D01*
X154675392Y-65867931D01*
X154666349Y-65855324D01*
X154662080Y-65849669D01*
X154631613Y-65814294D01*
X154599596Y-65784863D01*
X154566232Y-65761478D01*
X154531725Y-65744242D01*
X154496278Y-65733258D01*
X154460095Y-65728629D01*
X154425787Y-65730140D01*
X154402068Y-65733889D01*
X154382281Y-65739017D01*
X154363815Y-65746416D01*
X154344057Y-65756981D01*
X154339588Y-65759632D01*
X154299953Y-65785853D01*
X154266266Y-65813260D01*
X154238658Y-65841709D01*
X154217259Y-65871054D01*
X154202199Y-65901153D01*
X154196560Y-65918365D01*
X154192734Y-65941112D01*
X154191914Y-65967780D01*
X154036369Y-65967780D01*
X154036405Y-65957283D01*
X154036580Y-65935650D01*
X154036978Y-65919148D01*
X154037748Y-65906346D01*
X154039037Y-65895812D01*
X154040996Y-65886115D01*
X154043771Y-65875822D01*
X154045445Y-65870225D01*
X154056960Y-65838530D01*
X154071978Y-65806426D01*
X154089069Y-65776846D01*
X154095752Y-65766957D01*
X154103252Y-65755802D01*
X154106415Y-65749268D01*
X154105161Y-65746982D01*
X154099414Y-65748574D01*
X154092582Y-65751844D01*
X154060505Y-65771613D01*
X154029037Y-65797458D01*
X153998587Y-65828893D01*
X153969562Y-65865433D01*
X153942369Y-65906593D01*
X153917417Y-65951889D01*
X153907966Y-65971463D01*
X153901958Y-65984606D01*
X153897153Y-65995497D01*
X153894132Y-66002797D01*
X153893385Y-66005109D01*
X153724205Y-66005109D01*
X153728505Y-65992130D01*
X153750128Y-65937623D01*
G37*
D12*
%TO.C,R32*%
X153397500Y-85322742D02*
X153397500Y-85797258D01*
X154442500Y-85322742D02*
X154442500Y-85797258D01*
%TO.C,C1*%
X147729420Y-65800000D02*
X148010580Y-65800000D01*
X147729420Y-66820000D02*
X148010580Y-66820000D01*
%TO.C,D26*%
X146870000Y-87310000D02*
X145870000Y-87310000D01*
%TO.C,C14*%
X147729420Y-78350000D02*
X148010580Y-78350000D01*
X147729420Y-79370000D02*
X148010580Y-79370000D01*
%TO.C,R31*%
X147607258Y-85832500D02*
X147132742Y-85832500D01*
X147607258Y-84787500D02*
X147132742Y-84787500D01*
D13*
%TO.C,J3*%
X153295000Y-57722500D02*
X145945000Y-57722500D01*
D12*
X153760000Y-56322500D02*
X153760000Y-55072500D01*
X145510000Y-56322500D02*
X145510000Y-55072500D01*
%TO.C,R33*%
X151182742Y-87537500D02*
X151657258Y-87537500D01*
X151182742Y-88582500D02*
X151657258Y-88582500D01*
D14*
%TO.C,U1*%
X145995000Y-69185000D02*
X146320000Y-69185000D01*
X153245000Y-69185000D02*
X153245000Y-69510000D01*
X153245000Y-76435000D02*
X152920000Y-76435000D01*
X145995000Y-69185000D02*
X145995000Y-69510000D01*
X153245000Y-69185000D02*
X152920000Y-69185000D01*
X153245000Y-76435000D02*
X153245000Y-76110000D01*
D11*
X145775000Y-76810000D02*
G75*
G03*
X145775000Y-76810000I-155000J0D01*
G01*
D12*
%TO.C,F11*%
X154132742Y-83832500D02*
X154607258Y-83832500D01*
X154132742Y-82787500D02*
X154607258Y-82787500D01*
%TO.C,D13*%
X151120000Y-79810000D02*
X151120000Y-78810000D01*
X151120000Y-78810000D02*
X151920000Y-79287500D01*
X151920000Y-79912500D02*
X151920000Y-78662500D01*
X151920000Y-79287500D02*
X151120000Y-79810000D01*
%TO.C,C9*%
X146130000Y-65169420D02*
X146130000Y-65450580D01*
X145110000Y-65169420D02*
X145110000Y-65450580D01*
%TO.C,D12*%
X151120000Y-81810000D02*
X151120000Y-80810000D01*
X151120000Y-80810000D02*
X151920000Y-81287500D01*
X151920000Y-81287500D02*
X151120000Y-81810000D01*
X151920000Y-81912500D02*
X151920000Y-80662500D01*
%TO.C,D11*%
X151120000Y-82810000D02*
X151920000Y-83287500D01*
X151120000Y-83810000D02*
X151120000Y-82810000D01*
X151920000Y-83287500D02*
X151120000Y-83810000D01*
X151920000Y-83912500D02*
X151920000Y-82662500D01*
%TO.C,F23*%
X143510000Y-84662064D02*
X143510000Y-83457936D01*
X145330000Y-84662064D02*
X145330000Y-83457936D01*
%TO.C,F25*%
X152110000Y-61207936D02*
X152110000Y-62412064D01*
X153930000Y-61207936D02*
X153930000Y-62412064D01*
%TO.C,R23*%
X151107258Y-65332500D02*
X150632742Y-65332500D01*
X151107258Y-64287500D02*
X150632742Y-64287500D01*
D10*
%TO.C,Y2*%
X146320000Y-61610000D02*
X145920000Y-61210000D01*
D12*
X145470000Y-63410000D02*
X146770000Y-63410000D01*
D10*
X146320000Y-62410000D02*
X146720000Y-62010000D01*
X145920000Y-61210000D02*
X145520000Y-61610000D01*
D12*
X145470000Y-60210000D02*
X146770000Y-60210000D01*
D10*
X146295000Y-61135000D02*
X146545000Y-61385000D01*
X146320000Y-61610000D02*
X146720000Y-62010000D01*
X145920000Y-62010000D02*
X146320000Y-62410000D01*
X146570000Y-61360000D02*
X146770000Y-61160000D01*
X146545000Y-61385000D02*
X146795000Y-61635000D01*
X145445000Y-61985000D02*
X145695000Y-62235000D01*
X145695000Y-62235000D02*
X145945000Y-62485000D01*
D12*
X148620000Y-61960000D02*
X148620000Y-61660000D01*
X143620000Y-61960000D02*
X143620000Y-61660000D01*
D10*
X145670000Y-62260000D02*
X145470000Y-62460000D01*
X145920000Y-62010000D02*
X145520000Y-61610000D01*
D12*
%TO.C,F13*%
X154132742Y-78787500D02*
X154607258Y-78787500D01*
X154132742Y-79832500D02*
X154607258Y-79832500D01*
%TO.C,R30*%
X147132742Y-83287500D02*
X147607258Y-83287500D01*
X147132742Y-84332500D02*
X147607258Y-84332500D01*
%TO.C,R24*%
X153397500Y-88797258D02*
X153397500Y-88322742D01*
X154442500Y-88797258D02*
X154442500Y-88322742D01*
%TO.C,R29*%
X151642500Y-60822742D02*
X151642500Y-61297258D01*
X150597500Y-60822742D02*
X150597500Y-61297258D01*
%TO.C,C12*%
X144530000Y-65169420D02*
X144530000Y-65450580D01*
X143510000Y-65169420D02*
X143510000Y-65450580D01*
%TO.C,D29*%
X150920000Y-85560000D02*
X149920000Y-85560000D01*
%TO.C,R25*%
X144642500Y-88047258D02*
X144642500Y-87572742D01*
X143597500Y-88047258D02*
X143597500Y-87572742D01*
%TO.C,D30*%
X154620000Y-62060000D02*
X155097500Y-61260000D01*
X155620000Y-62060000D02*
X154620000Y-62060000D01*
X155097500Y-61260000D02*
X155620000Y-62060000D01*
X155722500Y-61260000D02*
X154472500Y-61260000D01*
%TO.C,C8*%
X147729420Y-65070000D02*
X148010580Y-65070000D01*
X147729420Y-64050000D02*
X148010580Y-64050000D01*
%TO.C,D28*%
X152920000Y-85560000D02*
X151920000Y-85560000D01*
%TO.C,D27*%
X148870000Y-87310000D02*
X147870000Y-87310000D01*
%TO.C,F12*%
X154132742Y-80787500D02*
X154607258Y-80787500D01*
X154132742Y-81832500D02*
X154607258Y-81832500D01*
%TO.C,C7*%
X150155000Y-62119420D02*
X150155000Y-62400580D01*
X149135000Y-62119420D02*
X149135000Y-62400580D01*
%TD*%
M02*
