%TF.GenerationSoftware,KiCad,Pcbnew,(6.0.8)*%
%TF.CreationDate,2022-12-15T00:43:05+01:00*%
%TF.ProjectId,Dact,44616374-2e6b-4696-9361-645f70636258,rev?*%
%TF.SameCoordinates,Original*%
%TF.FileFunction,Legend,Bot*%
%TF.FilePolarity,Positive*%
%FSLAX46Y46*%
G04 Gerber Fmt 4.6, Leading zero omitted, Abs format (unit mm)*
G04 Created by KiCad (PCBNEW (6.0.8)) date 2022-12-15 00:43:05*
%MOMM*%
%LPD*%
G01*
G04 APERTURE LIST*
%ADD10C,0.200000*%
%ADD11C,0.120000*%
%ADD12C,0.310000*%
G04 APERTURE END LIST*
D10*
X154727142Y-90667142D02*
X154774761Y-90714761D01*
X154917619Y-90762380D01*
X155012857Y-90762380D01*
X155155714Y-90714761D01*
X155250952Y-90619523D01*
X155298571Y-90524285D01*
X155346190Y-90333809D01*
X155346190Y-90190952D01*
X155298571Y-90000476D01*
X155250952Y-89905238D01*
X155155714Y-89810000D01*
X155012857Y-89762380D01*
X154917619Y-89762380D01*
X154774761Y-89810000D01*
X154727142Y-89857619D01*
X154298571Y-90238571D02*
X153965238Y-90238571D01*
X153822380Y-90762380D02*
X154298571Y-90762380D01*
X154298571Y-89762380D01*
X153822380Y-89762380D01*
X152822380Y-90762380D02*
X153155714Y-90286190D01*
X153393809Y-90762380D02*
X153393809Y-89762380D01*
X153012857Y-89762380D01*
X152917619Y-89810000D01*
X152870000Y-89857619D01*
X152822380Y-89952857D01*
X152822380Y-90095714D01*
X152870000Y-90190952D01*
X152917619Y-90238571D01*
X153012857Y-90286190D01*
X153393809Y-90286190D01*
X152393809Y-90762380D02*
X152393809Y-89762380D01*
X151822380Y-90762380D01*
X151822380Y-89762380D01*
X151346190Y-90381428D02*
X150584285Y-90381428D01*
X149917619Y-89762380D02*
X149727142Y-89762380D01*
X149631904Y-89810000D01*
X149536666Y-89905238D01*
X149489047Y-90095714D01*
X149489047Y-90429047D01*
X149536666Y-90619523D01*
X149631904Y-90714761D01*
X149727142Y-90762380D01*
X149917619Y-90762380D01*
X150012857Y-90714761D01*
X150108095Y-90619523D01*
X150155714Y-90429047D01*
X150155714Y-90095714D01*
X150108095Y-89905238D01*
X150012857Y-89810000D01*
X149917619Y-89762380D01*
X149060476Y-90762380D02*
X149060476Y-89762380D01*
X149060476Y-90238571D02*
X148489047Y-90238571D01*
X148489047Y-90762380D02*
X148489047Y-89762380D01*
X147536666Y-90762380D02*
X148012857Y-90762380D01*
X148012857Y-89762380D01*
X147203333Y-90381428D02*
X146441428Y-90381428D01*
X145965238Y-90762380D02*
X145965238Y-89762380D01*
X145584285Y-89762380D01*
X145489047Y-89810000D01*
X145441428Y-89857619D01*
X145393809Y-89952857D01*
X145393809Y-90095714D01*
X145441428Y-90190952D01*
X145489047Y-90238571D01*
X145584285Y-90286190D01*
X145965238Y-90286190D01*
D11*
%TO.C,F2*%
X145280000Y-90457936D02*
X145280000Y-91662064D01*
X143460000Y-90457936D02*
X143460000Y-91662064D01*
%TO.C,R7*%
X145357258Y-77287500D02*
X144882742Y-77287500D01*
X145357258Y-78332500D02*
X144882742Y-78332500D01*
%TO.C,R2*%
X145357258Y-68332500D02*
X144882742Y-68332500D01*
X145357258Y-67287500D02*
X144882742Y-67287500D01*
%TO.C,C4*%
X147010580Y-83300000D02*
X146729420Y-83300000D01*
X147010580Y-84320000D02*
X146729420Y-84320000D01*
%TO.C,R8*%
X145357258Y-80332500D02*
X144882742Y-80332500D01*
X145357258Y-79287500D02*
X144882742Y-79287500D01*
%TO.C,D20*%
X151670000Y-64207500D02*
X151670000Y-65457500D01*
X151670000Y-64832500D02*
X150870000Y-64310000D01*
X150870000Y-65310000D02*
X151670000Y-64832500D01*
X150870000Y-64310000D02*
X150870000Y-65310000D01*
%TO.C,U4*%
X154680000Y-56560000D02*
X154680000Y-54610000D01*
X144560000Y-56560000D02*
X144560000Y-58510000D01*
X154680000Y-56560000D02*
X154680000Y-58510000D01*
X144560000Y-56560000D02*
X144560000Y-54610000D01*
D12*
X155025000Y-59060000D02*
G75*
G03*
X155025000Y-59060000I-155000J0D01*
G01*
D11*
%TO.C,U3*%
X146870000Y-63445000D02*
X146070000Y-63445000D01*
X146870000Y-60325000D02*
X146070000Y-60325000D01*
X146870000Y-63445000D02*
X147670000Y-63445000D01*
X146870000Y-60325000D02*
X147670000Y-60325000D01*
%TO.C,D4*%
X148370000Y-71310000D02*
X147570000Y-71787500D01*
X147570000Y-71787500D02*
X148370000Y-72310000D01*
X148370000Y-72310000D02*
X148370000Y-71310000D01*
X147570000Y-72412500D02*
X147570000Y-71162500D01*
%TO.C,D9*%
X148370000Y-81310000D02*
X147570000Y-81787500D01*
X148370000Y-82310000D02*
X148370000Y-81310000D01*
X147570000Y-82412500D02*
X147570000Y-81162500D01*
X147570000Y-81787500D02*
X148370000Y-82310000D01*
%TO.C,D6*%
X148370000Y-75310000D02*
X147570000Y-75787500D01*
X147570000Y-76412500D02*
X147570000Y-75162500D01*
X148370000Y-76310000D02*
X148370000Y-75310000D01*
X147570000Y-75787500D02*
X148370000Y-76310000D01*
%TO.C,R14*%
X153882742Y-77332500D02*
X154357258Y-77332500D01*
X153882742Y-76287500D02*
X154357258Y-76287500D01*
%TO.C,D1*%
X151670000Y-86832500D02*
X150870000Y-86310000D01*
X150870000Y-86310000D02*
X150870000Y-87310000D01*
X150870000Y-87310000D02*
X151670000Y-86832500D01*
X151670000Y-86207500D02*
X151670000Y-87457500D01*
%TO.C,C5*%
X147260580Y-88300000D02*
X146979420Y-88300000D01*
X147260580Y-89320000D02*
X146979420Y-89320000D01*
%TO.C,R16*%
X153882742Y-73332500D02*
X154357258Y-73332500D01*
X153882742Y-72287500D02*
X154357258Y-72287500D01*
%TO.C,R15*%
X153882742Y-74287500D02*
X154357258Y-74287500D01*
X153882742Y-75332500D02*
X154357258Y-75332500D01*
%TO.C,C6*%
X144979420Y-63800000D02*
X145260580Y-63800000D01*
X144979420Y-64820000D02*
X145260580Y-64820000D01*
%TO.C,R1*%
X153882742Y-86287500D02*
X154357258Y-86287500D01*
X153882742Y-87332500D02*
X154357258Y-87332500D01*
%TO.C,D2*%
X147570000Y-68412500D02*
X147570000Y-67162500D01*
X148370000Y-68310000D02*
X148370000Y-67310000D01*
X148370000Y-67310000D02*
X147570000Y-67787500D01*
X147570000Y-67787500D02*
X148370000Y-68310000D01*
%TO.C,R17*%
X153882742Y-71332500D02*
X154357258Y-71332500D01*
X153882742Y-70287500D02*
X154357258Y-70287500D01*
%TO.C,R4*%
X145357258Y-71287500D02*
X144882742Y-71287500D01*
X145357258Y-72332500D02*
X144882742Y-72332500D01*
%TO.C,C10*%
X154110580Y-61770000D02*
X153829420Y-61770000D01*
X154110580Y-60750000D02*
X153829420Y-60750000D01*
%TO.C,D18*%
X150870000Y-69310000D02*
X151670000Y-68832500D01*
X151670000Y-68832500D02*
X150870000Y-68310000D01*
X150870000Y-68310000D02*
X150870000Y-69310000D01*
X151670000Y-68207500D02*
X151670000Y-69457500D01*
%TO.C,R28*%
X151082258Y-61707500D02*
X150607742Y-61707500D01*
X151082258Y-60662500D02*
X150607742Y-60662500D01*
%TO.C,C2*%
X151510580Y-82800000D02*
X151229420Y-82800000D01*
X151510580Y-83820000D02*
X151229420Y-83820000D01*
%TO.C,D7*%
X148370000Y-78310000D02*
X148370000Y-77310000D01*
X147570000Y-77787500D02*
X148370000Y-78310000D01*
X148370000Y-77310000D02*
X147570000Y-77787500D01*
X147570000Y-78412500D02*
X147570000Y-77162500D01*
%TO.C,D22*%
X147570000Y-65787500D02*
X148370000Y-66310000D01*
X148370000Y-66310000D02*
X148370000Y-65310000D01*
X147570000Y-66412500D02*
X147570000Y-65162500D01*
X148370000Y-65310000D02*
X147570000Y-65787500D01*
%TO.C,R5*%
X145357258Y-73287500D02*
X144882742Y-73287500D01*
X145357258Y-74332500D02*
X144882742Y-74332500D01*
%TO.C,D23*%
X144620000Y-87310000D02*
X144142500Y-86510000D01*
X143517500Y-86510000D02*
X144767500Y-86510000D01*
X143620000Y-87310000D02*
X144620000Y-87310000D01*
X144142500Y-86510000D02*
X143620000Y-87310000D01*
%TO.C,R9*%
X145357258Y-82332500D02*
X144882742Y-82332500D01*
X145357258Y-81287500D02*
X144882742Y-81287500D01*
%TO.C,D14*%
X150870000Y-76310000D02*
X150870000Y-77310000D01*
X150870000Y-77310000D02*
X151670000Y-76832500D01*
X151670000Y-76832500D02*
X150870000Y-76310000D01*
X151670000Y-76207500D02*
X151670000Y-77457500D01*
%TO.C,R19*%
X153882742Y-67332500D02*
X154357258Y-67332500D01*
X153882742Y-66287500D02*
X154357258Y-66287500D01*
%TO.C,R22*%
X145357258Y-65412500D02*
X144882742Y-65412500D01*
X145357258Y-66457500D02*
X144882742Y-66457500D01*
%TO.C,R21*%
X153882742Y-63332500D02*
X154357258Y-63332500D01*
X153882742Y-62287500D02*
X154357258Y-62287500D01*
%TO.C,D16*%
X151670000Y-72207500D02*
X151670000Y-73457500D01*
X150870000Y-73310000D02*
X151670000Y-72832500D01*
X151670000Y-72832500D02*
X150870000Y-72310000D01*
X150870000Y-72310000D02*
X150870000Y-73310000D01*
%TO.C,C3*%
X154510580Y-82800000D02*
X154229420Y-82800000D01*
X154510580Y-83820000D02*
X154229420Y-83820000D01*
%TO.C,R18*%
X153882742Y-68287500D02*
X154357258Y-68287500D01*
X153882742Y-69332500D02*
X154357258Y-69332500D01*
%TO.C,D19*%
X150870000Y-67310000D02*
X151670000Y-66832500D01*
X150870000Y-66310000D02*
X150870000Y-67310000D01*
X151670000Y-66832500D02*
X150870000Y-66310000D01*
X151670000Y-66207500D02*
X151670000Y-67457500D01*
%TO.C,R10*%
X153882742Y-88290000D02*
X154357258Y-88290000D01*
X153882742Y-89335000D02*
X154357258Y-89335000D01*
%TO.C,D21*%
X151670000Y-62932500D02*
X150870000Y-62410000D01*
X150870000Y-62410000D02*
X150870000Y-63410000D01*
X151670000Y-62307500D02*
X151670000Y-63557500D01*
X150870000Y-63410000D02*
X151670000Y-62932500D01*
%TO.C,R3*%
X145357258Y-70332500D02*
X144882742Y-70332500D01*
X145357258Y-69287500D02*
X144882742Y-69287500D01*
%TO.C,D15*%
X151670000Y-74207500D02*
X151670000Y-75457500D01*
X150870000Y-75310000D02*
X151670000Y-74832500D01*
X151670000Y-74832500D02*
X150870000Y-74310000D01*
X150870000Y-74310000D02*
X150870000Y-75310000D01*
%TO.C,D8*%
X147570000Y-80412500D02*
X147570000Y-79162500D01*
X147570000Y-79787500D02*
X148370000Y-80310000D01*
X148370000Y-79310000D02*
X147570000Y-79787500D01*
X148370000Y-80310000D02*
X148370000Y-79310000D01*
%TO.C,D17*%
X150870000Y-70310000D02*
X150870000Y-71310000D01*
X151670000Y-70832500D02*
X150870000Y-70310000D01*
X151670000Y-70207500D02*
X151670000Y-71457500D01*
X150870000Y-71310000D02*
X151670000Y-70832500D01*
%TO.C,D5*%
X148370000Y-74310000D02*
X148370000Y-73310000D01*
X148370000Y-73310000D02*
X147570000Y-73787500D01*
X147570000Y-74412500D02*
X147570000Y-73162500D01*
X147570000Y-73787500D02*
X148370000Y-74310000D01*
%TO.C,U2*%
X147120000Y-87870000D02*
X146320000Y-87870000D01*
X147120000Y-84750000D02*
X146320000Y-84750000D01*
X147120000Y-84750000D02*
X147920000Y-84750000D01*
X147120000Y-87870000D02*
X147920000Y-87870000D01*
%TO.C,R6*%
X145357258Y-75287500D02*
X144882742Y-75287500D01*
X145357258Y-76332500D02*
X144882742Y-76332500D01*
%TO.C,C11*%
X156510580Y-53550000D02*
X156229420Y-53550000D01*
X156510580Y-54570000D02*
X156229420Y-54570000D01*
%TO.C,D3*%
X148370000Y-69310000D02*
X147570000Y-69787500D01*
X147570000Y-69787500D02*
X148370000Y-70310000D01*
X148370000Y-70310000D02*
X148370000Y-69310000D01*
X147570000Y-70412500D02*
X147570000Y-69162500D01*
%TO.C,D10*%
X150870000Y-88312500D02*
X150870000Y-89312500D01*
X150870000Y-89312500D02*
X151670000Y-88835000D01*
X151670000Y-88835000D02*
X150870000Y-88312500D01*
X151670000Y-88210000D02*
X151670000Y-89460000D01*
D10*
%TO.C,Y1*%
X152445000Y-79885000D02*
X152195000Y-80135000D01*
X152820000Y-80760000D02*
X152420000Y-81160000D01*
D11*
X153270000Y-82160000D02*
X151970000Y-82160000D01*
D10*
X152820000Y-79960000D02*
X153220000Y-80360000D01*
X152170000Y-80110000D02*
X151970000Y-79910000D01*
X152420000Y-80360000D02*
X152020000Y-80760000D01*
X153045000Y-80985000D02*
X152795000Y-81235000D01*
X152420000Y-81160000D02*
X152020000Y-80760000D01*
X152820000Y-80760000D02*
X153220000Y-80360000D01*
X152420000Y-80360000D02*
X152820000Y-79960000D01*
D11*
X153270000Y-78960000D02*
X151970000Y-78960000D01*
D10*
X153295000Y-80735000D02*
X153045000Y-80985000D01*
D11*
X155120000Y-80735000D02*
X155120000Y-80385000D01*
D10*
X153070000Y-81010000D02*
X153270000Y-81210000D01*
X152195000Y-80135000D02*
X151945000Y-80385000D01*
D11*
X150120000Y-80735000D02*
X150120000Y-80385000D01*
%TO.C,R20*%
X153882742Y-65332500D02*
X154357258Y-65332500D01*
X153882742Y-64287500D02*
X154357258Y-64287500D01*
%TO.C,C13*%
X143010580Y-54570000D02*
X142729420Y-54570000D01*
X143010580Y-53550000D02*
X142729420Y-53550000D01*
%TD*%
M02*
