%TF.GenerationSoftware,KiCad,Pcbnew,(6.0.8)*%
%TF.CreationDate,2022-12-15T18:30:15+01:00*%
%TF.ProjectId,Dact,44616374-2e6b-4696-9361-645f70636258,rev?*%
%TF.SameCoordinates,Original*%
%TF.FileFunction,Drillmap*%
%TF.FilePolarity,Positive*%
%FSLAX45Y45*%
G04 Gerber Fmt 4.5, Leading zero omitted, Abs format (unit mm)*
G04 Created by KiCad (PCBNEW (6.0.8)) date 2022-12-15 18:30:15*
%MOMM*%
%LPD*%
G01*
G04 APERTURE LIST*
%ADD10C,0.100000*%
%ADD11C,0.200000*%
%ADD12C,0.065000*%
G04 APERTURE END LIST*
D10*
X14037000Y-5256000D02*
X15887000Y-5256000D01*
X15887000Y-9606000D02*
X14037000Y-9606000D01*
X15887000Y-5256000D02*
X15887000Y-9606000D01*
X14037000Y-9606000D02*
X14037000Y-5256000D01*
D11*
D12*
X14642000Y-5699750D02*
X14707000Y-5764750D01*
X14707000Y-5699750D02*
X14642000Y-5764750D01*
X15222000Y-5699750D02*
X15287000Y-5764750D01*
X15287000Y-5699750D02*
X15222000Y-5764750D01*
D11*
X14289619Y-9921476D02*
X14289619Y-9721476D01*
X14337238Y-9721476D01*
X14365809Y-9731000D01*
X14384857Y-9750048D01*
X14394381Y-9769095D01*
X14403905Y-9807190D01*
X14403905Y-9835762D01*
X14394381Y-9873857D01*
X14384857Y-9892905D01*
X14365809Y-9911952D01*
X14337238Y-9921476D01*
X14289619Y-9921476D01*
X14489619Y-9921476D02*
X14489619Y-9788143D01*
X14489619Y-9826238D02*
X14499143Y-9807190D01*
X14508667Y-9797667D01*
X14527714Y-9788143D01*
X14546762Y-9788143D01*
X14613428Y-9921476D02*
X14613428Y-9788143D01*
X14613428Y-9721476D02*
X14603905Y-9731000D01*
X14613428Y-9740524D01*
X14622952Y-9731000D01*
X14613428Y-9721476D01*
X14613428Y-9740524D01*
X14737238Y-9921476D02*
X14718190Y-9911952D01*
X14708667Y-9892905D01*
X14708667Y-9721476D01*
X14842000Y-9921476D02*
X14822952Y-9911952D01*
X14813428Y-9892905D01*
X14813428Y-9721476D01*
X15070571Y-9921476D02*
X15070571Y-9721476D01*
X15137238Y-9864333D01*
X15203905Y-9721476D01*
X15203905Y-9921476D01*
X15384857Y-9921476D02*
X15384857Y-9816714D01*
X15375333Y-9797667D01*
X15356286Y-9788143D01*
X15318190Y-9788143D01*
X15299143Y-9797667D01*
X15384857Y-9911952D02*
X15365809Y-9921476D01*
X15318190Y-9921476D01*
X15299143Y-9911952D01*
X15289619Y-9892905D01*
X15289619Y-9873857D01*
X15299143Y-9854810D01*
X15318190Y-9845286D01*
X15365809Y-9845286D01*
X15384857Y-9835762D01*
X15480095Y-9788143D02*
X15480095Y-9988143D01*
X15480095Y-9797667D02*
X15499143Y-9788143D01*
X15537238Y-9788143D01*
X15556286Y-9797667D01*
X15565809Y-9807190D01*
X15575333Y-9826238D01*
X15575333Y-9883381D01*
X15565809Y-9902429D01*
X15556286Y-9911952D01*
X15537238Y-9921476D01*
X15499143Y-9921476D01*
X15480095Y-9911952D01*
X15661048Y-9902429D02*
X15670571Y-9911952D01*
X15661048Y-9921476D01*
X15651524Y-9911952D01*
X15661048Y-9902429D01*
X15661048Y-9921476D01*
X15661048Y-9797667D02*
X15670571Y-9807190D01*
X15661048Y-9816714D01*
X15651524Y-9807190D01*
X15661048Y-9797667D01*
X15661048Y-9816714D01*
D12*
X13967000Y-10218500D02*
X14032000Y-10283500D01*
X14032000Y-10218500D02*
X13967000Y-10283500D01*
D11*
X14327714Y-10141476D02*
X14346762Y-10141476D01*
X14365809Y-10151000D01*
X14375333Y-10160524D01*
X14384857Y-10179571D01*
X14394381Y-10217667D01*
X14394381Y-10265286D01*
X14384857Y-10303381D01*
X14375333Y-10322429D01*
X14365809Y-10331952D01*
X14346762Y-10341476D01*
X14327714Y-10341476D01*
X14308667Y-10331952D01*
X14299143Y-10322429D01*
X14289619Y-10303381D01*
X14280095Y-10265286D01*
X14280095Y-10217667D01*
X14289619Y-10179571D01*
X14299143Y-10160524D01*
X14308667Y-10151000D01*
X14327714Y-10141476D01*
X14480095Y-10322429D02*
X14489619Y-10331952D01*
X14480095Y-10341476D01*
X14470571Y-10331952D01*
X14480095Y-10322429D01*
X14480095Y-10341476D01*
X14661048Y-10141476D02*
X14622952Y-10141476D01*
X14603905Y-10151000D01*
X14594381Y-10160524D01*
X14575333Y-10189095D01*
X14565809Y-10227190D01*
X14565809Y-10303381D01*
X14575333Y-10322429D01*
X14584857Y-10331952D01*
X14603905Y-10341476D01*
X14642000Y-10341476D01*
X14661048Y-10331952D01*
X14670571Y-10322429D01*
X14680095Y-10303381D01*
X14680095Y-10255762D01*
X14670571Y-10236714D01*
X14661048Y-10227190D01*
X14642000Y-10217667D01*
X14603905Y-10217667D01*
X14584857Y-10227190D01*
X14575333Y-10236714D01*
X14565809Y-10255762D01*
X14861048Y-10141476D02*
X14765809Y-10141476D01*
X14756286Y-10236714D01*
X14765809Y-10227190D01*
X14784857Y-10217667D01*
X14832476Y-10217667D01*
X14851524Y-10227190D01*
X14861048Y-10236714D01*
X14870571Y-10255762D01*
X14870571Y-10303381D01*
X14861048Y-10322429D01*
X14851524Y-10331952D01*
X14832476Y-10341476D01*
X14784857Y-10341476D01*
X14765809Y-10331952D01*
X14756286Y-10322429D01*
X14994381Y-10141476D02*
X15013428Y-10141476D01*
X15032476Y-10151000D01*
X15042000Y-10160524D01*
X15051524Y-10179571D01*
X15061048Y-10217667D01*
X15061048Y-10265286D01*
X15051524Y-10303381D01*
X15042000Y-10322429D01*
X15032476Y-10331952D01*
X15013428Y-10341476D01*
X14994381Y-10341476D01*
X14975333Y-10331952D01*
X14965809Y-10322429D01*
X14956286Y-10303381D01*
X14946762Y-10265286D01*
X14946762Y-10217667D01*
X14956286Y-10179571D01*
X14965809Y-10160524D01*
X14975333Y-10151000D01*
X14994381Y-10141476D01*
X15146762Y-10341476D02*
X15146762Y-10208143D01*
X15146762Y-10227190D02*
X15156286Y-10217667D01*
X15175333Y-10208143D01*
X15203905Y-10208143D01*
X15222952Y-10217667D01*
X15232476Y-10236714D01*
X15232476Y-10341476D01*
X15232476Y-10236714D02*
X15242000Y-10217667D01*
X15261048Y-10208143D01*
X15289619Y-10208143D01*
X15308667Y-10217667D01*
X15318190Y-10236714D01*
X15318190Y-10341476D01*
X15413428Y-10341476D02*
X15413428Y-10208143D01*
X15413428Y-10227190D02*
X15422952Y-10217667D01*
X15442000Y-10208143D01*
X15470571Y-10208143D01*
X15489619Y-10217667D01*
X15499143Y-10236714D01*
X15499143Y-10341476D01*
X15499143Y-10236714D02*
X15508667Y-10217667D01*
X15527714Y-10208143D01*
X15556286Y-10208143D01*
X15575333Y-10217667D01*
X15584857Y-10236714D01*
X15584857Y-10341476D01*
X15975333Y-10131952D02*
X15803905Y-10389095D01*
X16232476Y-10141476D02*
X16251524Y-10141476D01*
X16270571Y-10151000D01*
X16280095Y-10160524D01*
X16289619Y-10179571D01*
X16299143Y-10217667D01*
X16299143Y-10265286D01*
X16289619Y-10303381D01*
X16280095Y-10322429D01*
X16270571Y-10331952D01*
X16251524Y-10341476D01*
X16232476Y-10341476D01*
X16213428Y-10331952D01*
X16203905Y-10322429D01*
X16194381Y-10303381D01*
X16184857Y-10265286D01*
X16184857Y-10217667D01*
X16194381Y-10179571D01*
X16203905Y-10160524D01*
X16213428Y-10151000D01*
X16232476Y-10141476D01*
X16384857Y-10322429D02*
X16394381Y-10331952D01*
X16384857Y-10341476D01*
X16375333Y-10331952D01*
X16384857Y-10322429D01*
X16384857Y-10341476D01*
X16518190Y-10141476D02*
X16537238Y-10141476D01*
X16556286Y-10151000D01*
X16565809Y-10160524D01*
X16575333Y-10179571D01*
X16584857Y-10217667D01*
X16584857Y-10265286D01*
X16575333Y-10303381D01*
X16565809Y-10322429D01*
X16556286Y-10331952D01*
X16537238Y-10341476D01*
X16518190Y-10341476D01*
X16499143Y-10331952D01*
X16489619Y-10322429D01*
X16480095Y-10303381D01*
X16470571Y-10265286D01*
X16470571Y-10217667D01*
X16480095Y-10179571D01*
X16489619Y-10160524D01*
X16499143Y-10151000D01*
X16518190Y-10141476D01*
X16661048Y-10160524D02*
X16670571Y-10151000D01*
X16689619Y-10141476D01*
X16737238Y-10141476D01*
X16756286Y-10151000D01*
X16765809Y-10160524D01*
X16775333Y-10179571D01*
X16775333Y-10198619D01*
X16765809Y-10227190D01*
X16651524Y-10341476D01*
X16775333Y-10341476D01*
X16956286Y-10141476D02*
X16861048Y-10141476D01*
X16851524Y-10236714D01*
X16861048Y-10227190D01*
X16880095Y-10217667D01*
X16927714Y-10217667D01*
X16946762Y-10227190D01*
X16956286Y-10236714D01*
X16965810Y-10255762D01*
X16965810Y-10303381D01*
X16956286Y-10322429D01*
X16946762Y-10331952D01*
X16927714Y-10341476D01*
X16880095Y-10341476D01*
X16861048Y-10331952D01*
X16851524Y-10322429D01*
X17137238Y-10141476D02*
X17099143Y-10141476D01*
X17080095Y-10151000D01*
X17070571Y-10160524D01*
X17051524Y-10189095D01*
X17042000Y-10227190D01*
X17042000Y-10303381D01*
X17051524Y-10322429D01*
X17061048Y-10331952D01*
X17080095Y-10341476D01*
X17118190Y-10341476D01*
X17137238Y-10331952D01*
X17146762Y-10322429D01*
X17156286Y-10303381D01*
X17156286Y-10255762D01*
X17146762Y-10236714D01*
X17137238Y-10227190D01*
X17118190Y-10217667D01*
X17080095Y-10217667D01*
X17061048Y-10227190D01*
X17051524Y-10236714D01*
X17042000Y-10255762D01*
X17232476Y-10141476D02*
X17232476Y-10179571D01*
X17308667Y-10141476D02*
X17308667Y-10179571D01*
X17603905Y-10417667D02*
X17594381Y-10408143D01*
X17575333Y-10379571D01*
X17565810Y-10360524D01*
X17556286Y-10331952D01*
X17546762Y-10284333D01*
X17546762Y-10246238D01*
X17556286Y-10198619D01*
X17565810Y-10170048D01*
X17575333Y-10151000D01*
X17594381Y-10122429D01*
X17603905Y-10112905D01*
X17670571Y-10160524D02*
X17680095Y-10151000D01*
X17699143Y-10141476D01*
X17746762Y-10141476D01*
X17765810Y-10151000D01*
X17775333Y-10160524D01*
X17784857Y-10179571D01*
X17784857Y-10198619D01*
X17775333Y-10227190D01*
X17661048Y-10341476D01*
X17784857Y-10341476D01*
X18022952Y-10341476D02*
X18022952Y-10141476D01*
X18108667Y-10341476D02*
X18108667Y-10236714D01*
X18099143Y-10217667D01*
X18080095Y-10208143D01*
X18051524Y-10208143D01*
X18032476Y-10217667D01*
X18022952Y-10227190D01*
X18232476Y-10341476D02*
X18213429Y-10331952D01*
X18203905Y-10322429D01*
X18194381Y-10303381D01*
X18194381Y-10246238D01*
X18203905Y-10227190D01*
X18213429Y-10217667D01*
X18232476Y-10208143D01*
X18261048Y-10208143D01*
X18280095Y-10217667D01*
X18289619Y-10227190D01*
X18299143Y-10246238D01*
X18299143Y-10303381D01*
X18289619Y-10322429D01*
X18280095Y-10331952D01*
X18261048Y-10341476D01*
X18232476Y-10341476D01*
X18413429Y-10341476D02*
X18394381Y-10331952D01*
X18384857Y-10312905D01*
X18384857Y-10141476D01*
X18565810Y-10331952D02*
X18546762Y-10341476D01*
X18508667Y-10341476D01*
X18489619Y-10331952D01*
X18480095Y-10312905D01*
X18480095Y-10236714D01*
X18489619Y-10217667D01*
X18508667Y-10208143D01*
X18546762Y-10208143D01*
X18565810Y-10217667D01*
X18575333Y-10236714D01*
X18575333Y-10255762D01*
X18480095Y-10274810D01*
X18651524Y-10331952D02*
X18670571Y-10341476D01*
X18708667Y-10341476D01*
X18727714Y-10331952D01*
X18737238Y-10312905D01*
X18737238Y-10303381D01*
X18727714Y-10284333D01*
X18708667Y-10274810D01*
X18680095Y-10274810D01*
X18661048Y-10265286D01*
X18651524Y-10246238D01*
X18651524Y-10236714D01*
X18661048Y-10217667D01*
X18680095Y-10208143D01*
X18708667Y-10208143D01*
X18727714Y-10217667D01*
X18803905Y-10417667D02*
X18813429Y-10408143D01*
X18832476Y-10379571D01*
X18842000Y-10360524D01*
X18851524Y-10331952D01*
X18861048Y-10284333D01*
X18861048Y-10246238D01*
X18851524Y-10198619D01*
X18842000Y-10170048D01*
X18832476Y-10151000D01*
X18813429Y-10122429D01*
X18803905Y-10112905D01*
X19165810Y-10417667D02*
X19156286Y-10408143D01*
X19137238Y-10379571D01*
X19127714Y-10360524D01*
X19118190Y-10331952D01*
X19108667Y-10284333D01*
X19108667Y-10246238D01*
X19118190Y-10198619D01*
X19127714Y-10170048D01*
X19137238Y-10151000D01*
X19156286Y-10122429D01*
X19165810Y-10112905D01*
X19242000Y-10208143D02*
X19242000Y-10341476D01*
X19242000Y-10227190D02*
X19251524Y-10217667D01*
X19270571Y-10208143D01*
X19299143Y-10208143D01*
X19318190Y-10217667D01*
X19327714Y-10236714D01*
X19327714Y-10341476D01*
X19451524Y-10341476D02*
X19432476Y-10331952D01*
X19422952Y-10322429D01*
X19413429Y-10303381D01*
X19413429Y-10246238D01*
X19422952Y-10227190D01*
X19432476Y-10217667D01*
X19451524Y-10208143D01*
X19480095Y-10208143D01*
X19499143Y-10217667D01*
X19508667Y-10227190D01*
X19518190Y-10246238D01*
X19518190Y-10303381D01*
X19508667Y-10322429D01*
X19499143Y-10331952D01*
X19480095Y-10341476D01*
X19451524Y-10341476D01*
X19575333Y-10208143D02*
X19651524Y-10208143D01*
X19603905Y-10141476D02*
X19603905Y-10312905D01*
X19613429Y-10331952D01*
X19632476Y-10341476D01*
X19651524Y-10341476D01*
X19870571Y-10208143D02*
X19870571Y-10408143D01*
X19870571Y-10217667D02*
X19889619Y-10208143D01*
X19927714Y-10208143D01*
X19946762Y-10217667D01*
X19956286Y-10227190D01*
X19965810Y-10246238D01*
X19965810Y-10303381D01*
X19956286Y-10322429D01*
X19946762Y-10331952D01*
X19927714Y-10341476D01*
X19889619Y-10341476D01*
X19870571Y-10331952D01*
X20080095Y-10341476D02*
X20061048Y-10331952D01*
X20051524Y-10312905D01*
X20051524Y-10141476D01*
X20242000Y-10341476D02*
X20242000Y-10236714D01*
X20232476Y-10217667D01*
X20213429Y-10208143D01*
X20175333Y-10208143D01*
X20156286Y-10217667D01*
X20242000Y-10331952D02*
X20222952Y-10341476D01*
X20175333Y-10341476D01*
X20156286Y-10331952D01*
X20146762Y-10312905D01*
X20146762Y-10293857D01*
X20156286Y-10274810D01*
X20175333Y-10265286D01*
X20222952Y-10265286D01*
X20242000Y-10255762D01*
X20308667Y-10208143D02*
X20384857Y-10208143D01*
X20337238Y-10141476D02*
X20337238Y-10312905D01*
X20346762Y-10331952D01*
X20365810Y-10341476D01*
X20384857Y-10341476D01*
X20527714Y-10331952D02*
X20508667Y-10341476D01*
X20470571Y-10341476D01*
X20451524Y-10331952D01*
X20442000Y-10312905D01*
X20442000Y-10236714D01*
X20451524Y-10217667D01*
X20470571Y-10208143D01*
X20508667Y-10208143D01*
X20527714Y-10217667D01*
X20537238Y-10236714D01*
X20537238Y-10255762D01*
X20442000Y-10274810D01*
X20708667Y-10341476D02*
X20708667Y-10141476D01*
X20708667Y-10331952D02*
X20689619Y-10341476D01*
X20651524Y-10341476D01*
X20632476Y-10331952D01*
X20622952Y-10322429D01*
X20613429Y-10303381D01*
X20613429Y-10246238D01*
X20622952Y-10227190D01*
X20632476Y-10217667D01*
X20651524Y-10208143D01*
X20689619Y-10208143D01*
X20708667Y-10217667D01*
X20784857Y-10417667D02*
X20794381Y-10408143D01*
X20813429Y-10379571D01*
X20822952Y-10360524D01*
X20832476Y-10331952D01*
X20842000Y-10284333D01*
X20842000Y-10246238D01*
X20832476Y-10198619D01*
X20822952Y-10170048D01*
X20813429Y-10151000D01*
X20794381Y-10122429D01*
X20784857Y-10112905D01*
M02*
