%TF.GenerationSoftware,KiCad,Pcbnew,(6.0.8)*%
%TF.CreationDate,2022-12-14T23:26:50+01:00*%
%TF.ProjectId,rugged_nano,72756767-6564-45f6-9e61-6e6f2e6b6963,rev?*%
%TF.SameCoordinates,Original*%
%TF.FileFunction,Soldermask,Top*%
%TF.FilePolarity,Negative*%
%FSLAX46Y46*%
G04 Gerber Fmt 4.6, Leading zero omitted, Abs format (unit mm)*
G04 Created by KiCad (PCBNEW (6.0.8)) date 2022-12-14 23:26:50*
%MOMM*%
%LPD*%
G01*
G04 APERTURE LIST*
G04 Aperture macros list*
%AMRoundRect*
0 Rectangle with rounded corners*
0 $1 Rounding radius*
0 $2 $3 $4 $5 $6 $7 $8 $9 X,Y pos of 4 corners*
0 Add a 4 corners polygon primitive as box body*
4,1,4,$2,$3,$4,$5,$6,$7,$8,$9,$2,$3,0*
0 Add four circle primitives for the rounded corners*
1,1,$1+$1,$2,$3*
1,1,$1+$1,$4,$5*
1,1,$1+$1,$6,$7*
1,1,$1+$1,$8,$9*
0 Add four rect primitives between the rounded corners*
20,1,$1+$1,$2,$3,$4,$5,0*
20,1,$1+$1,$4,$5,$6,$7,0*
20,1,$1+$1,$6,$7,$8,$9,0*
20,1,$1+$1,$8,$9,$2,$3,0*%
%AMOutline5P*
0 Free polygon, 5 corners , with rotation*
0 The origin of the aperture is its center*
0 number of corners: always 5*
0 $1 to $10 corner X, Y*
0 $11 Rotation angle, in degrees counterclockwise*
0 create outline with 5 corners*
4,1,5,$1,$2,$3,$4,$5,$6,$7,$8,$9,$10,$1,$2,$11*%
%AMOutline6P*
0 Free polygon, 6 corners , with rotation*
0 The origin of the aperture is its center*
0 number of corners: always 6*
0 $1 to $12 corner X, Y*
0 $13 Rotation angle, in degrees counterclockwise*
0 create outline with 6 corners*
4,1,6,$1,$2,$3,$4,$5,$6,$7,$8,$9,$10,$11,$12,$1,$2,$13*%
%AMOutline7P*
0 Free polygon, 7 corners , with rotation*
0 The origin of the aperture is its center*
0 number of corners: always 7*
0 $1 to $14 corner X, Y*
0 $15 Rotation angle, in degrees counterclockwise*
0 create outline with 7 corners*
4,1,7,$1,$2,$3,$4,$5,$6,$7,$8,$9,$10,$11,$12,$13,$14,$1,$2,$15*%
%AMOutline8P*
0 Free polygon, 8 corners , with rotation*
0 The origin of the aperture is its center*
0 number of corners: always 8*
0 $1 to $16 corner X, Y*
0 $17 Rotation angle, in degrees counterclockwise*
0 create outline with 8 corners*
4,1,8,$1,$2,$3,$4,$5,$6,$7,$8,$9,$10,$11,$12,$13,$14,$15,$16,$1,$2,$17*%
G04 Aperture macros list end*
%ADD10RoundRect,0.200000X-0.275000X0.200000X-0.275000X-0.200000X0.275000X-0.200000X0.275000X0.200000X0*%
%ADD11RoundRect,0.225000X-0.225000X-0.250000X0.225000X-0.250000X0.225000X0.250000X-0.225000X0.250000X0*%
%ADD12RoundRect,0.218750X-0.256250X0.218750X-0.256250X-0.218750X0.256250X-0.218750X0.256250X0.218750X0*%
%ADD13RoundRect,0.200000X0.200000X0.275000X-0.200000X0.275000X-0.200000X-0.275000X0.200000X-0.275000X0*%
%ADD14C,0.670000*%
%ADD15R,0.250000X1.450000*%
%ADD16R,0.300000X1.450000*%
%ADD17R,2.000000X2.000000*%
%ADD18R,2.000000X2.200000*%
%ADD19RoundRect,0.200000X-0.200000X-0.275000X0.200000X-0.275000X0.200000X0.275000X-0.200000X0.275000X0*%
%ADD20R,0.550000X1.600000*%
%ADD21R,1.600000X0.550000*%
%ADD22R,0.600000X0.450000*%
%ADD23RoundRect,0.225000X-0.250000X0.225000X-0.250000X-0.225000X0.250000X-0.225000X0.250000X0.225000X0*%
%ADD24RoundRect,0.250000X0.625000X-0.375000X0.625000X0.375000X-0.625000X0.375000X-0.625000X-0.375000X0*%
%ADD25RoundRect,0.250000X-0.625000X0.375000X-0.625000X-0.375000X0.625000X-0.375000X0.625000X0.375000X0*%
%ADD26R,1.600000X1.300000*%
%ADD27R,1.150000X1.300000*%
%ADD28Outline5P,-0.800000X0.650000X0.800000X0.650000X0.800000X-0.260000X0.410000X-0.650000X-0.800000X-0.650000X0.000000*%
%ADD29RoundRect,0.200000X0.275000X-0.200000X0.275000X0.200000X-0.275000X0.200000X-0.275000X-0.200000X0*%
%ADD30C,1.700000*%
%ADD31O,1.700000X1.700000*%
%ADD32R,1.700000X1.700000*%
%ADD33C,1.600000*%
%ADD34O,1.600000X1.600000*%
%ADD35R,0.450000X0.600000*%
G04 APERTURE END LIST*
D10*
%TO.C,R32*%
X153870000Y-84735000D03*
X153870000Y-86385000D03*
%TD*%
D11*
%TO.C,C1*%
X147095000Y-66310000D03*
X148645000Y-66310000D03*
%TD*%
D12*
%TO.C,D26*%
X146370000Y-86772500D03*
X146370000Y-88347500D03*
%TD*%
D11*
%TO.C,C14*%
X147095000Y-78860000D03*
X148645000Y-78860000D03*
%TD*%
D13*
%TO.C,R31*%
X148195000Y-85310000D03*
X146545000Y-85310000D03*
%TD*%
D14*
%TO.C,J3*%
X146745000Y-57322500D03*
X152545000Y-57322500D03*
D15*
X153020000Y-58572500D03*
X152220000Y-58572500D03*
X150895000Y-58572500D03*
X149895000Y-58572500D03*
X149395000Y-58572500D03*
X148395000Y-58572500D03*
X147070000Y-58572500D03*
X146270000Y-58572500D03*
D16*
X146545000Y-58572500D03*
X147345000Y-58572500D03*
D15*
X147895000Y-58572500D03*
X148895000Y-58572500D03*
X150395000Y-58572500D03*
X151395000Y-58572500D03*
D16*
X151945000Y-58572500D03*
X152745000Y-58572500D03*
D17*
X154730000Y-53822500D03*
X144510000Y-53822500D03*
D18*
X144510000Y-57752500D03*
D17*
X154730000Y-57752500D03*
%TD*%
D19*
%TO.C,R33*%
X150595000Y-88060000D03*
X152245000Y-88060000D03*
%TD*%
D20*
%TO.C,U1*%
X146820000Y-77060000D03*
X147620000Y-77060000D03*
X148420000Y-77060000D03*
X149220000Y-77060000D03*
X150020000Y-77060000D03*
X150820000Y-77060000D03*
X151620000Y-77060000D03*
X152420000Y-77060000D03*
D21*
X153870000Y-75610000D03*
X153870000Y-74810000D03*
X153870000Y-74010000D03*
X153870000Y-73210000D03*
X153870000Y-72410000D03*
X153870000Y-71610000D03*
X153870000Y-70810000D03*
X153870000Y-70010000D03*
D20*
X152420000Y-68560000D03*
X151620000Y-68560000D03*
X150820000Y-68560000D03*
X150020000Y-68560000D03*
X149220000Y-68560000D03*
X148420000Y-68560000D03*
X147620000Y-68560000D03*
X146820000Y-68560000D03*
D21*
X145370000Y-70010000D03*
X145370000Y-70810000D03*
X145370000Y-71610000D03*
X145370000Y-72410000D03*
X145370000Y-73210000D03*
X145370000Y-74010000D03*
X145370000Y-74810000D03*
X145370000Y-75610000D03*
%TD*%
D19*
%TO.C,R11*%
X153545000Y-83310000D03*
X155195000Y-83310000D03*
%TD*%
D22*
%TO.C,D13*%
X152420000Y-79312500D03*
X150320000Y-79312500D03*
%TD*%
D23*
%TO.C,C9*%
X145620000Y-64535000D03*
X145620000Y-66085000D03*
%TD*%
D22*
%TO.C,D12*%
X152420000Y-81312500D03*
X150320000Y-81312500D03*
%TD*%
%TO.C,D11*%
X152420000Y-83312500D03*
X150320000Y-83312500D03*
%TD*%
D24*
%TO.C,F1*%
X144420000Y-85460000D03*
X144420000Y-82660000D03*
%TD*%
D25*
%TO.C,F3*%
X153020000Y-60410000D03*
X153020000Y-63210000D03*
%TD*%
D13*
%TO.C,R23*%
X151695000Y-64810000D03*
X150045000Y-64810000D03*
%TD*%
D26*
%TO.C,Y2*%
X144470000Y-62810000D03*
D27*
X147545000Y-62810000D03*
D26*
X147770000Y-60810000D03*
D28*
X144470000Y-60810000D03*
%TD*%
D19*
%TO.C,R13*%
X153545000Y-79310000D03*
X155195000Y-79310000D03*
%TD*%
%TO.C,R30*%
X146545000Y-83810000D03*
X148195000Y-83810000D03*
%TD*%
D29*
%TO.C,R24*%
X153870000Y-89385000D03*
X153870000Y-87735000D03*
%TD*%
D10*
%TO.C,R29*%
X151120000Y-60235000D03*
X151120000Y-61885000D03*
%TD*%
D23*
%TO.C,C12*%
X144020000Y-64535000D03*
X144020000Y-66085000D03*
%TD*%
D30*
%TO.C,J2*%
X147095000Y-94585000D03*
D31*
X147095000Y-92045000D03*
X149635000Y-94585000D03*
X149635000Y-92045000D03*
X152175000Y-94585000D03*
D32*
X152175000Y-92045000D03*
%TD*%
D33*
%TO.C,A1*%
X157240000Y-92120000D03*
D34*
X157240000Y-89580000D03*
X157240000Y-87040000D03*
X157240000Y-84500000D03*
X157240000Y-81960000D03*
X157240000Y-79420000D03*
X157240000Y-76880000D03*
X157240000Y-74340000D03*
X157240000Y-71800000D03*
X157240000Y-69260000D03*
X157240000Y-66720000D03*
X157240000Y-64180000D03*
X157240000Y-61640000D03*
X157240000Y-59100000D03*
X157240000Y-56560000D03*
X142000000Y-56560000D03*
X142000000Y-59100000D03*
X142000000Y-61640000D03*
X142000000Y-64180000D03*
X142000000Y-66720000D03*
X142000000Y-69260000D03*
X142000000Y-71800000D03*
X142000000Y-74340000D03*
X142000000Y-76880000D03*
X142000000Y-79420000D03*
X142000000Y-81960000D03*
X142000000Y-84500000D03*
X142000000Y-87040000D03*
X142000000Y-89580000D03*
X142000000Y-92120000D03*
%TD*%
D12*
%TO.C,D29*%
X150420000Y-85022500D03*
X150420000Y-86597500D03*
%TD*%
D29*
%TO.C,R25*%
X144120000Y-88635000D03*
X144120000Y-86985000D03*
%TD*%
D35*
%TO.C,D30*%
X155122500Y-60760000D03*
X155122500Y-62860000D03*
%TD*%
D11*
%TO.C,C8*%
X147095000Y-64560000D03*
X148645000Y-64560000D03*
%TD*%
D12*
%TO.C,D28*%
X152420000Y-85022500D03*
X152420000Y-86597500D03*
%TD*%
%TO.C,D27*%
X148370000Y-86772500D03*
X148370000Y-88347500D03*
%TD*%
D19*
%TO.C,R12*%
X153545000Y-81310000D03*
X155195000Y-81310000D03*
%TD*%
D23*
%TO.C,C7*%
X149645000Y-61485000D03*
X149645000Y-63035000D03*
%TD*%
M02*
