%TF.GenerationSoftware,KiCad,Pcbnew,(6.0.8)*%
%TF.CreationDate,2022-12-14T23:26:52+01:00*%
%TF.ProjectId,rugged_nano,72756767-6564-45f6-9e61-6e6f2e6b6963,rev?*%
%TF.SameCoordinates,Original*%
%TF.FileFunction,Drillmap*%
%TF.FilePolarity,Positive*%
%FSLAX45Y45*%
G04 Gerber Fmt 4.5, Leading zero omitted, Abs format (unit mm)*
G04 Created by KiCad (PCBNEW (6.0.8)) date 2022-12-14 23:26:52*
%MOMM*%
%LPD*%
G01*
G04 APERTURE LIST*
%ADD10C,0.100000*%
%ADD11C,0.200000*%
%ADD12C,0.020000*%
G04 APERTURE END LIST*
D10*
X14037000Y-5256000D02*
X15887000Y-5256000D01*
X15887000Y-9606000D02*
X14037000Y-9606000D01*
X15887000Y-5256000D02*
X15887000Y-9606000D01*
X14037000Y-9606000D02*
X14037000Y-5256000D01*
D11*
D12*
X14261377Y-6786623D02*
X14281377Y-6806623D01*
X14281377Y-6786623D02*
X14261377Y-6806623D01*
X14277000Y-5521000D02*
X14297000Y-5541000D01*
X14297000Y-5521000D02*
X14277000Y-5541000D01*
X14327000Y-7046000D02*
X14347000Y-7066000D01*
X14347000Y-7046000D02*
X14327000Y-7066000D01*
X14362000Y-5986000D02*
X14382000Y-6006000D01*
X14382000Y-5986000D02*
X14362000Y-6006000D01*
X14432000Y-8431000D02*
X14452000Y-8451000D01*
X14452000Y-8431000D02*
X14432000Y-8451000D01*
X14457000Y-9486000D02*
X14477000Y-9506000D01*
X14477000Y-9486000D02*
X14457000Y-9506000D01*
X14462499Y-6677439D02*
X14482499Y-6697439D01*
X14482499Y-6677439D02*
X14462499Y-6697439D01*
X14549450Y-8266812D02*
X14569450Y-8286812D01*
X14569450Y-8266812D02*
X14549450Y-8286812D01*
X14549500Y-5956000D02*
X14569500Y-5976000D01*
X14569500Y-5956000D02*
X14549500Y-5976000D01*
X14550600Y-6169040D02*
X14570600Y-6189040D01*
X14570600Y-6169040D02*
X14550600Y-6189040D01*
X14552000Y-6836000D02*
X14572000Y-6856000D01*
X14572000Y-6836000D02*
X14552000Y-6856000D01*
X14607000Y-5656000D02*
X14627000Y-5676000D01*
X14627000Y-5656000D02*
X14607000Y-5676000D01*
X14622000Y-6909256D02*
X14642000Y-6929256D01*
X14642000Y-6909256D02*
X14622000Y-6929256D01*
X14627000Y-8986000D02*
X14647000Y-9006000D01*
X14647000Y-8986000D02*
X14627000Y-9006000D01*
X14637770Y-6000523D02*
X14657770Y-6020523D01*
X14657770Y-6000523D02*
X14637770Y-6020523D01*
X14647000Y-7471000D02*
X14667000Y-7491000D01*
X14667000Y-7471000D02*
X14647000Y-7491000D01*
X14656950Y-7566050D02*
X14676950Y-7586050D01*
X14676950Y-7566050D02*
X14656950Y-7586050D01*
X14727000Y-8621000D02*
X14747000Y-8641000D01*
X14747000Y-8621000D02*
X14727000Y-8641000D01*
X14734500Y-7483500D02*
X14754500Y-7503500D01*
X14754500Y-7483500D02*
X14734500Y-7503500D01*
X14737000Y-6186000D02*
X14757000Y-6206000D01*
X14757000Y-6186000D02*
X14737000Y-6206000D01*
X14746820Y-7048680D02*
X14766820Y-7068680D01*
X14766820Y-7048680D02*
X14746820Y-7068680D01*
X14759550Y-6636000D02*
X14779550Y-6656000D01*
X14779550Y-6636000D02*
X14759550Y-6656000D01*
X14822000Y-8886000D02*
X14842000Y-8906000D01*
X14842000Y-8886000D02*
X14822000Y-8906000D01*
X14837050Y-7050677D02*
X14857050Y-7070677D01*
X14857050Y-7050677D02*
X14837050Y-7070677D01*
X14840127Y-7861627D02*
X14860127Y-7881627D01*
X14860127Y-7861627D02*
X14840127Y-7881627D01*
X14854550Y-6230023D02*
X14874550Y-6250023D01*
X14874550Y-6230023D02*
X14854550Y-6250023D01*
X14872927Y-5703450D02*
X14892927Y-5723450D01*
X14892927Y-5703450D02*
X14872927Y-5723450D01*
X14884450Y-8376000D02*
X14904450Y-8396000D01*
X14904450Y-8376000D02*
X14884450Y-8396000D01*
X14888604Y-7288800D02*
X14908604Y-7308800D01*
X14908604Y-7288800D02*
X14888604Y-7308800D01*
X14895407Y-5981071D02*
X14915407Y-6001071D01*
X14915407Y-5981071D02*
X14895407Y-6001071D01*
X14904550Y-6446000D02*
X14924550Y-6466000D01*
X14924550Y-6446000D02*
X14904550Y-6466000D01*
X14907050Y-7493500D02*
X14927050Y-7513500D01*
X14927050Y-7493500D02*
X14907050Y-7513500D01*
X14908122Y-6937440D02*
X14928122Y-6957440D01*
X14928122Y-6937440D02*
X14908122Y-6957440D01*
X14917000Y-8096000D02*
X14937000Y-8116000D01*
X14937000Y-8096000D02*
X14917000Y-8116000D01*
X14952000Y-7971000D02*
X14972000Y-7991000D01*
X14972000Y-7971000D02*
X14952000Y-7991000D01*
X14972000Y-8486000D02*
X14992000Y-8506000D01*
X14992000Y-8486000D02*
X14972000Y-8506000D01*
X14977000Y-5676000D02*
X14997000Y-5696000D01*
X14997000Y-5676000D02*
X14977000Y-5696000D01*
X14977000Y-6601000D02*
X14997000Y-6621000D01*
X14997000Y-6601000D02*
X14977000Y-6621000D01*
X14977000Y-7571000D02*
X14997000Y-7591000D01*
X14997000Y-7571000D02*
X14977000Y-7591000D01*
X15004500Y-6243450D02*
X15024500Y-6263450D01*
X15024500Y-6243450D02*
X15004500Y-6263450D01*
X15015500Y-5516000D02*
X15035500Y-5536000D01*
X15035500Y-5516000D02*
X15015500Y-5536000D01*
X15052000Y-7386000D02*
X15072000Y-7406000D01*
X15072000Y-7386000D02*
X15052000Y-7406000D01*
X15079450Y-7091623D02*
X15099450Y-7111623D01*
X15099450Y-7091623D02*
X15079450Y-7111623D01*
X15079640Y-6619561D02*
X15099640Y-6639561D01*
X15099640Y-6619561D02*
X15079640Y-6639561D01*
X15102000Y-7276000D02*
X15122000Y-7296000D01*
X15122000Y-7276000D02*
X15102000Y-7296000D01*
X15109003Y-8328997D02*
X15129003Y-8348997D01*
X15129003Y-8328997D02*
X15109003Y-8348997D01*
X15112050Y-6337771D02*
X15132050Y-6357771D01*
X15132050Y-6337771D02*
X15112050Y-6357771D01*
X15142000Y-7156000D02*
X15162000Y-7176000D01*
X15162000Y-7156000D02*
X15142000Y-7176000D01*
X15152000Y-7471000D02*
X15172000Y-7491000D01*
X15172000Y-7471000D02*
X15152000Y-7491000D01*
X15152000Y-7791000D02*
X15172000Y-7811000D01*
X15172000Y-7791000D02*
X15152000Y-7811000D01*
X15155213Y-6263553D02*
X15175213Y-6283553D01*
X15175213Y-6263553D02*
X15155213Y-6283553D01*
X15177000Y-8571000D02*
X15197000Y-8591000D01*
X15197000Y-8571000D02*
X15177000Y-8591000D01*
X15197000Y-6136050D02*
X15217000Y-6156050D01*
X15217000Y-6136050D02*
X15197000Y-6156050D01*
X15202000Y-7316000D02*
X15222000Y-7336000D01*
X15222000Y-7316000D02*
X15202000Y-7336000D01*
X15242000Y-7791000D02*
X15262000Y-7811000D01*
X15262000Y-7791000D02*
X15242000Y-7811000D01*
X15312000Y-6573550D02*
X15332000Y-6593550D01*
X15332000Y-6573550D02*
X15312000Y-6593550D01*
X15377000Y-6671000D02*
X15397000Y-6691000D01*
X15397000Y-6671000D02*
X15377000Y-6691000D01*
X15377000Y-7671000D02*
X15397000Y-7691000D01*
X15397000Y-7671000D02*
X15377000Y-7691000D01*
X15452000Y-9081000D02*
X15472000Y-9101000D01*
X15472000Y-9081000D02*
X15452000Y-9101000D01*
X15482000Y-5976000D02*
X15502000Y-5996000D01*
X15502000Y-5976000D02*
X15482000Y-5996000D01*
X15542000Y-5596000D02*
X15562000Y-5616000D01*
X15562000Y-5596000D02*
X15542000Y-5616000D01*
D10*
X14250000Y-5656000D02*
G75*
G03*
X14250000Y-5656000I-50000J0D01*
G01*
X14250000Y-5910000D02*
G75*
G03*
X14250000Y-5910000I-50000J0D01*
G01*
X14250000Y-6164000D02*
G75*
G03*
X14250000Y-6164000I-50000J0D01*
G01*
X14250000Y-6418000D02*
G75*
G03*
X14250000Y-6418000I-50000J0D01*
G01*
X14250000Y-6672000D02*
G75*
G03*
X14250000Y-6672000I-50000J0D01*
G01*
X14250000Y-6926000D02*
G75*
G03*
X14250000Y-6926000I-50000J0D01*
G01*
X14250000Y-7180000D02*
G75*
G03*
X14250000Y-7180000I-50000J0D01*
G01*
X14250000Y-7434000D02*
G75*
G03*
X14250000Y-7434000I-50000J0D01*
G01*
X14250000Y-7688000D02*
G75*
G03*
X14250000Y-7688000I-50000J0D01*
G01*
X14250000Y-7942000D02*
G75*
G03*
X14250000Y-7942000I-50000J0D01*
G01*
X14250000Y-8196000D02*
G75*
G03*
X14250000Y-8196000I-50000J0D01*
G01*
X14250000Y-8450000D02*
G75*
G03*
X14250000Y-8450000I-50000J0D01*
G01*
X14250000Y-8704000D02*
G75*
G03*
X14250000Y-8704000I-50000J0D01*
G01*
X14250000Y-8958000D02*
G75*
G03*
X14250000Y-8958000I-50000J0D01*
G01*
X14250000Y-9212000D02*
G75*
G03*
X14250000Y-9212000I-50000J0D01*
G01*
X14759500Y-9204500D02*
G75*
G03*
X14759500Y-9204500I-50000J0D01*
G01*
X14759500Y-9458500D02*
G75*
G03*
X14759500Y-9458500I-50000J0D01*
G01*
X15013500Y-9204500D02*
G75*
G03*
X15013500Y-9204500I-50000J0D01*
G01*
X15013500Y-9458500D02*
G75*
G03*
X15013500Y-9458500I-50000J0D01*
G01*
X15267500Y-9204500D02*
G75*
G03*
X15267500Y-9204500I-50000J0D01*
G01*
X15267500Y-9458500D02*
G75*
G03*
X15267500Y-9458500I-50000J0D01*
G01*
X15774000Y-5656000D02*
G75*
G03*
X15774000Y-5656000I-50000J0D01*
G01*
X15774000Y-5910000D02*
G75*
G03*
X15774000Y-5910000I-50000J0D01*
G01*
X15774000Y-6164000D02*
G75*
G03*
X15774000Y-6164000I-50000J0D01*
G01*
X15774000Y-6418000D02*
G75*
G03*
X15774000Y-6418000I-50000J0D01*
G01*
X15774000Y-6672000D02*
G75*
G03*
X15774000Y-6672000I-50000J0D01*
G01*
X15774000Y-6926000D02*
G75*
G03*
X15774000Y-6926000I-50000J0D01*
G01*
X15774000Y-7180000D02*
G75*
G03*
X15774000Y-7180000I-50000J0D01*
G01*
X15774000Y-7434000D02*
G75*
G03*
X15774000Y-7434000I-50000J0D01*
G01*
X15774000Y-7688000D02*
G75*
G03*
X15774000Y-7688000I-50000J0D01*
G01*
X15774000Y-7942000D02*
G75*
G03*
X15774000Y-7942000I-50000J0D01*
G01*
X15774000Y-8196000D02*
G75*
G03*
X15774000Y-8196000I-50000J0D01*
G01*
X15774000Y-8450000D02*
G75*
G03*
X15774000Y-8450000I-50000J0D01*
G01*
X15774000Y-8704000D02*
G75*
G03*
X15774000Y-8704000I-50000J0D01*
G01*
X15774000Y-8958000D02*
G75*
G03*
X15774000Y-8958000I-50000J0D01*
G01*
X15774000Y-9212000D02*
G75*
G03*
X15774000Y-9212000I-50000J0D01*
G01*
D11*
X14289619Y-9921476D02*
X14289619Y-9721476D01*
X14337238Y-9721476D01*
X14365809Y-9731000D01*
X14384857Y-9750048D01*
X14394381Y-9769095D01*
X14403905Y-9807190D01*
X14403905Y-9835762D01*
X14394381Y-9873857D01*
X14384857Y-9892905D01*
X14365809Y-9911952D01*
X14337238Y-9921476D01*
X14289619Y-9921476D01*
X14489619Y-9921476D02*
X14489619Y-9788143D01*
X14489619Y-9826238D02*
X14499143Y-9807190D01*
X14508667Y-9797667D01*
X14527714Y-9788143D01*
X14546762Y-9788143D01*
X14613428Y-9921476D02*
X14613428Y-9788143D01*
X14613428Y-9721476D02*
X14603905Y-9731000D01*
X14613428Y-9740524D01*
X14622952Y-9731000D01*
X14613428Y-9721476D01*
X14613428Y-9740524D01*
X14737238Y-9921476D02*
X14718190Y-9911952D01*
X14708667Y-9892905D01*
X14708667Y-9721476D01*
X14842000Y-9921476D02*
X14822952Y-9911952D01*
X14813428Y-9892905D01*
X14813428Y-9721476D01*
X15070571Y-9921476D02*
X15070571Y-9721476D01*
X15137238Y-9864333D01*
X15203905Y-9721476D01*
X15203905Y-9921476D01*
X15384857Y-9921476D02*
X15384857Y-9816714D01*
X15375333Y-9797667D01*
X15356286Y-9788143D01*
X15318190Y-9788143D01*
X15299143Y-9797667D01*
X15384857Y-9911952D02*
X15365809Y-9921476D01*
X15318190Y-9921476D01*
X15299143Y-9911952D01*
X15289619Y-9892905D01*
X15289619Y-9873857D01*
X15299143Y-9854810D01*
X15318190Y-9845286D01*
X15365809Y-9845286D01*
X15384857Y-9835762D01*
X15480095Y-9788143D02*
X15480095Y-9988143D01*
X15480095Y-9797667D02*
X15499143Y-9788143D01*
X15537238Y-9788143D01*
X15556286Y-9797667D01*
X15565809Y-9807190D01*
X15575333Y-9826238D01*
X15575333Y-9883381D01*
X15565809Y-9902429D01*
X15556286Y-9911952D01*
X15537238Y-9921476D01*
X15499143Y-9921476D01*
X15480095Y-9911952D01*
X15661048Y-9902429D02*
X15670571Y-9911952D01*
X15661048Y-9921476D01*
X15651524Y-9911952D01*
X15661048Y-9902429D01*
X15661048Y-9921476D01*
X15661048Y-9797667D02*
X15670571Y-9807190D01*
X15661048Y-9816714D01*
X15651524Y-9807190D01*
X15661048Y-9797667D01*
X15661048Y-9816714D01*
D12*
X14012000Y-10241000D02*
X14032000Y-10261000D01*
X14032000Y-10241000D02*
X14012000Y-10261000D01*
D11*
X14327714Y-10141476D02*
X14346762Y-10141476D01*
X14365809Y-10151000D01*
X14375333Y-10160524D01*
X14384857Y-10179571D01*
X14394381Y-10217667D01*
X14394381Y-10265286D01*
X14384857Y-10303381D01*
X14375333Y-10322429D01*
X14365809Y-10331952D01*
X14346762Y-10341476D01*
X14327714Y-10341476D01*
X14308667Y-10331952D01*
X14299143Y-10322429D01*
X14289619Y-10303381D01*
X14280095Y-10265286D01*
X14280095Y-10217667D01*
X14289619Y-10179571D01*
X14299143Y-10160524D01*
X14308667Y-10151000D01*
X14327714Y-10141476D01*
X14480095Y-10322429D02*
X14489619Y-10331952D01*
X14480095Y-10341476D01*
X14470571Y-10331952D01*
X14480095Y-10322429D01*
X14480095Y-10341476D01*
X14565809Y-10160524D02*
X14575333Y-10151000D01*
X14594381Y-10141476D01*
X14642000Y-10141476D01*
X14661048Y-10151000D01*
X14670571Y-10160524D01*
X14680095Y-10179571D01*
X14680095Y-10198619D01*
X14670571Y-10227190D01*
X14556286Y-10341476D01*
X14680095Y-10341476D01*
X14803905Y-10141476D02*
X14822952Y-10141476D01*
X14842000Y-10151000D01*
X14851524Y-10160524D01*
X14861048Y-10179571D01*
X14870571Y-10217667D01*
X14870571Y-10265286D01*
X14861048Y-10303381D01*
X14851524Y-10322429D01*
X14842000Y-10331952D01*
X14822952Y-10341476D01*
X14803905Y-10341476D01*
X14784857Y-10331952D01*
X14775333Y-10322429D01*
X14765809Y-10303381D01*
X14756286Y-10265286D01*
X14756286Y-10217667D01*
X14765809Y-10179571D01*
X14775333Y-10160524D01*
X14784857Y-10151000D01*
X14803905Y-10141476D01*
X14994381Y-10141476D02*
X15013428Y-10141476D01*
X15032476Y-10151000D01*
X15042000Y-10160524D01*
X15051524Y-10179571D01*
X15061048Y-10217667D01*
X15061048Y-10265286D01*
X15051524Y-10303381D01*
X15042000Y-10322429D01*
X15032476Y-10331952D01*
X15013428Y-10341476D01*
X14994381Y-10341476D01*
X14975333Y-10331952D01*
X14965809Y-10322429D01*
X14956286Y-10303381D01*
X14946762Y-10265286D01*
X14946762Y-10217667D01*
X14956286Y-10179571D01*
X14965809Y-10160524D01*
X14975333Y-10151000D01*
X14994381Y-10141476D01*
X15146762Y-10341476D02*
X15146762Y-10208143D01*
X15146762Y-10227190D02*
X15156286Y-10217667D01*
X15175333Y-10208143D01*
X15203905Y-10208143D01*
X15222952Y-10217667D01*
X15232476Y-10236714D01*
X15232476Y-10341476D01*
X15232476Y-10236714D02*
X15242000Y-10217667D01*
X15261048Y-10208143D01*
X15289619Y-10208143D01*
X15308667Y-10217667D01*
X15318190Y-10236714D01*
X15318190Y-10341476D01*
X15413428Y-10341476D02*
X15413428Y-10208143D01*
X15413428Y-10227190D02*
X15422952Y-10217667D01*
X15442000Y-10208143D01*
X15470571Y-10208143D01*
X15489619Y-10217667D01*
X15499143Y-10236714D01*
X15499143Y-10341476D01*
X15499143Y-10236714D02*
X15508667Y-10217667D01*
X15527714Y-10208143D01*
X15556286Y-10208143D01*
X15575333Y-10217667D01*
X15584857Y-10236714D01*
X15584857Y-10341476D01*
X15975333Y-10131952D02*
X15803905Y-10389095D01*
X16232476Y-10141476D02*
X16251524Y-10141476D01*
X16270571Y-10151000D01*
X16280095Y-10160524D01*
X16289619Y-10179571D01*
X16299143Y-10217667D01*
X16299143Y-10265286D01*
X16289619Y-10303381D01*
X16280095Y-10322429D01*
X16270571Y-10331952D01*
X16251524Y-10341476D01*
X16232476Y-10341476D01*
X16213428Y-10331952D01*
X16203905Y-10322429D01*
X16194381Y-10303381D01*
X16184857Y-10265286D01*
X16184857Y-10217667D01*
X16194381Y-10179571D01*
X16203905Y-10160524D01*
X16213428Y-10151000D01*
X16232476Y-10141476D01*
X16384857Y-10322429D02*
X16394381Y-10331952D01*
X16384857Y-10341476D01*
X16375333Y-10331952D01*
X16384857Y-10322429D01*
X16384857Y-10341476D01*
X16518190Y-10141476D02*
X16537238Y-10141476D01*
X16556286Y-10151000D01*
X16565809Y-10160524D01*
X16575333Y-10179571D01*
X16584857Y-10217667D01*
X16584857Y-10265286D01*
X16575333Y-10303381D01*
X16565809Y-10322429D01*
X16556286Y-10331952D01*
X16537238Y-10341476D01*
X16518190Y-10341476D01*
X16499143Y-10331952D01*
X16489619Y-10322429D01*
X16480095Y-10303381D01*
X16470571Y-10265286D01*
X16470571Y-10217667D01*
X16480095Y-10179571D01*
X16489619Y-10160524D01*
X16499143Y-10151000D01*
X16518190Y-10141476D01*
X16708667Y-10141476D02*
X16727714Y-10141476D01*
X16746762Y-10151000D01*
X16756286Y-10160524D01*
X16765809Y-10179571D01*
X16775333Y-10217667D01*
X16775333Y-10265286D01*
X16765809Y-10303381D01*
X16756286Y-10322429D01*
X16746762Y-10331952D01*
X16727714Y-10341476D01*
X16708667Y-10341476D01*
X16689619Y-10331952D01*
X16680095Y-10322429D01*
X16670571Y-10303381D01*
X16661048Y-10265286D01*
X16661048Y-10217667D01*
X16670571Y-10179571D01*
X16680095Y-10160524D01*
X16689619Y-10151000D01*
X16708667Y-10141476D01*
X16842000Y-10141476D02*
X16975333Y-10141476D01*
X16889619Y-10341476D01*
X17061048Y-10341476D02*
X17099143Y-10341476D01*
X17118190Y-10331952D01*
X17127714Y-10322429D01*
X17146762Y-10293857D01*
X17156286Y-10255762D01*
X17156286Y-10179571D01*
X17146762Y-10160524D01*
X17137238Y-10151000D01*
X17118190Y-10141476D01*
X17080095Y-10141476D01*
X17061048Y-10151000D01*
X17051524Y-10160524D01*
X17042000Y-10179571D01*
X17042000Y-10227190D01*
X17051524Y-10246238D01*
X17061048Y-10255762D01*
X17080095Y-10265286D01*
X17118190Y-10265286D01*
X17137238Y-10255762D01*
X17146762Y-10246238D01*
X17156286Y-10227190D01*
X17232476Y-10141476D02*
X17232476Y-10179571D01*
X17308667Y-10141476D02*
X17308667Y-10179571D01*
X17603905Y-10417667D02*
X17594381Y-10408143D01*
X17575333Y-10379571D01*
X17565810Y-10360524D01*
X17556286Y-10331952D01*
X17546762Y-10284333D01*
X17546762Y-10246238D01*
X17556286Y-10198619D01*
X17565810Y-10170048D01*
X17575333Y-10151000D01*
X17594381Y-10122429D01*
X17603905Y-10112905D01*
X17765810Y-10141476D02*
X17727714Y-10141476D01*
X17708667Y-10151000D01*
X17699143Y-10160524D01*
X17680095Y-10189095D01*
X17670571Y-10227190D01*
X17670571Y-10303381D01*
X17680095Y-10322429D01*
X17689619Y-10331952D01*
X17708667Y-10341476D01*
X17746762Y-10341476D01*
X17765810Y-10331952D01*
X17775333Y-10322429D01*
X17784857Y-10303381D01*
X17784857Y-10255762D01*
X17775333Y-10236714D01*
X17765810Y-10227190D01*
X17746762Y-10217667D01*
X17708667Y-10217667D01*
X17689619Y-10227190D01*
X17680095Y-10236714D01*
X17670571Y-10255762D01*
X17975333Y-10341476D02*
X17861048Y-10341476D01*
X17918190Y-10341476D02*
X17918190Y-10141476D01*
X17899143Y-10170048D01*
X17880095Y-10189095D01*
X17861048Y-10198619D01*
X18213429Y-10341476D02*
X18213429Y-10141476D01*
X18299143Y-10341476D02*
X18299143Y-10236714D01*
X18289619Y-10217667D01*
X18270571Y-10208143D01*
X18242000Y-10208143D01*
X18222952Y-10217667D01*
X18213429Y-10227190D01*
X18422952Y-10341476D02*
X18403905Y-10331952D01*
X18394381Y-10322429D01*
X18384857Y-10303381D01*
X18384857Y-10246238D01*
X18394381Y-10227190D01*
X18403905Y-10217667D01*
X18422952Y-10208143D01*
X18451524Y-10208143D01*
X18470571Y-10217667D01*
X18480095Y-10227190D01*
X18489619Y-10246238D01*
X18489619Y-10303381D01*
X18480095Y-10322429D01*
X18470571Y-10331952D01*
X18451524Y-10341476D01*
X18422952Y-10341476D01*
X18603905Y-10341476D02*
X18584857Y-10331952D01*
X18575333Y-10312905D01*
X18575333Y-10141476D01*
X18756286Y-10331952D02*
X18737238Y-10341476D01*
X18699143Y-10341476D01*
X18680095Y-10331952D01*
X18670571Y-10312905D01*
X18670571Y-10236714D01*
X18680095Y-10217667D01*
X18699143Y-10208143D01*
X18737238Y-10208143D01*
X18756286Y-10217667D01*
X18765810Y-10236714D01*
X18765810Y-10255762D01*
X18670571Y-10274810D01*
X18842000Y-10331952D02*
X18861048Y-10341476D01*
X18899143Y-10341476D01*
X18918190Y-10331952D01*
X18927714Y-10312905D01*
X18927714Y-10303381D01*
X18918190Y-10284333D01*
X18899143Y-10274810D01*
X18870571Y-10274810D01*
X18851524Y-10265286D01*
X18842000Y-10246238D01*
X18842000Y-10236714D01*
X18851524Y-10217667D01*
X18870571Y-10208143D01*
X18899143Y-10208143D01*
X18918190Y-10217667D01*
X18994381Y-10417667D02*
X19003905Y-10408143D01*
X19022952Y-10379571D01*
X19032476Y-10360524D01*
X19042000Y-10331952D01*
X19051524Y-10284333D01*
X19051524Y-10246238D01*
X19042000Y-10198619D01*
X19032476Y-10170048D01*
X19022952Y-10151000D01*
X19003905Y-10122429D01*
X18994381Y-10112905D01*
D10*
X14032000Y-10515000D02*
G75*
G03*
X14032000Y-10515000I-50000J0D01*
G01*
D11*
X14394381Y-10605476D02*
X14280095Y-10605476D01*
X14337238Y-10605476D02*
X14337238Y-10405476D01*
X14318190Y-10434048D01*
X14299143Y-10453095D01*
X14280095Y-10462619D01*
X14480095Y-10586429D02*
X14489619Y-10595952D01*
X14480095Y-10605476D01*
X14470571Y-10595952D01*
X14480095Y-10586429D01*
X14480095Y-10605476D01*
X14613428Y-10405476D02*
X14632476Y-10405476D01*
X14651524Y-10415000D01*
X14661048Y-10424524D01*
X14670571Y-10443571D01*
X14680095Y-10481667D01*
X14680095Y-10529286D01*
X14670571Y-10567381D01*
X14661048Y-10586429D01*
X14651524Y-10595952D01*
X14632476Y-10605476D01*
X14613428Y-10605476D01*
X14594381Y-10595952D01*
X14584857Y-10586429D01*
X14575333Y-10567381D01*
X14565809Y-10529286D01*
X14565809Y-10481667D01*
X14575333Y-10443571D01*
X14584857Y-10424524D01*
X14594381Y-10415000D01*
X14613428Y-10405476D01*
X14803905Y-10405476D02*
X14822952Y-10405476D01*
X14842000Y-10415000D01*
X14851524Y-10424524D01*
X14861048Y-10443571D01*
X14870571Y-10481667D01*
X14870571Y-10529286D01*
X14861048Y-10567381D01*
X14851524Y-10586429D01*
X14842000Y-10595952D01*
X14822952Y-10605476D01*
X14803905Y-10605476D01*
X14784857Y-10595952D01*
X14775333Y-10586429D01*
X14765809Y-10567381D01*
X14756286Y-10529286D01*
X14756286Y-10481667D01*
X14765809Y-10443571D01*
X14775333Y-10424524D01*
X14784857Y-10415000D01*
X14803905Y-10405476D01*
X14994381Y-10405476D02*
X15013428Y-10405476D01*
X15032476Y-10415000D01*
X15042000Y-10424524D01*
X15051524Y-10443571D01*
X15061048Y-10481667D01*
X15061048Y-10529286D01*
X15051524Y-10567381D01*
X15042000Y-10586429D01*
X15032476Y-10595952D01*
X15013428Y-10605476D01*
X14994381Y-10605476D01*
X14975333Y-10595952D01*
X14965809Y-10586429D01*
X14956286Y-10567381D01*
X14946762Y-10529286D01*
X14946762Y-10481667D01*
X14956286Y-10443571D01*
X14965809Y-10424524D01*
X14975333Y-10415000D01*
X14994381Y-10405476D01*
X15146762Y-10605476D02*
X15146762Y-10472143D01*
X15146762Y-10491190D02*
X15156286Y-10481667D01*
X15175333Y-10472143D01*
X15203905Y-10472143D01*
X15222952Y-10481667D01*
X15232476Y-10500714D01*
X15232476Y-10605476D01*
X15232476Y-10500714D02*
X15242000Y-10481667D01*
X15261048Y-10472143D01*
X15289619Y-10472143D01*
X15308667Y-10481667D01*
X15318190Y-10500714D01*
X15318190Y-10605476D01*
X15413428Y-10605476D02*
X15413428Y-10472143D01*
X15413428Y-10491190D02*
X15422952Y-10481667D01*
X15442000Y-10472143D01*
X15470571Y-10472143D01*
X15489619Y-10481667D01*
X15499143Y-10500714D01*
X15499143Y-10605476D01*
X15499143Y-10500714D02*
X15508667Y-10481667D01*
X15527714Y-10472143D01*
X15556286Y-10472143D01*
X15575333Y-10481667D01*
X15584857Y-10500714D01*
X15584857Y-10605476D01*
X15975333Y-10395952D02*
X15803905Y-10653095D01*
X16232476Y-10405476D02*
X16251524Y-10405476D01*
X16270571Y-10415000D01*
X16280095Y-10424524D01*
X16289619Y-10443571D01*
X16299143Y-10481667D01*
X16299143Y-10529286D01*
X16289619Y-10567381D01*
X16280095Y-10586429D01*
X16270571Y-10595952D01*
X16251524Y-10605476D01*
X16232476Y-10605476D01*
X16213428Y-10595952D01*
X16203905Y-10586429D01*
X16194381Y-10567381D01*
X16184857Y-10529286D01*
X16184857Y-10481667D01*
X16194381Y-10443571D01*
X16203905Y-10424524D01*
X16213428Y-10415000D01*
X16232476Y-10405476D01*
X16384857Y-10586429D02*
X16394381Y-10595952D01*
X16384857Y-10605476D01*
X16375333Y-10595952D01*
X16384857Y-10586429D01*
X16384857Y-10605476D01*
X16518190Y-10405476D02*
X16537238Y-10405476D01*
X16556286Y-10415000D01*
X16565809Y-10424524D01*
X16575333Y-10443571D01*
X16584857Y-10481667D01*
X16584857Y-10529286D01*
X16575333Y-10567381D01*
X16565809Y-10586429D01*
X16556286Y-10595952D01*
X16537238Y-10605476D01*
X16518190Y-10605476D01*
X16499143Y-10595952D01*
X16489619Y-10586429D01*
X16480095Y-10567381D01*
X16470571Y-10529286D01*
X16470571Y-10481667D01*
X16480095Y-10443571D01*
X16489619Y-10424524D01*
X16499143Y-10415000D01*
X16518190Y-10405476D01*
X16651524Y-10405476D02*
X16775333Y-10405476D01*
X16708667Y-10481667D01*
X16737238Y-10481667D01*
X16756286Y-10491190D01*
X16765809Y-10500714D01*
X16775333Y-10519762D01*
X16775333Y-10567381D01*
X16765809Y-10586429D01*
X16756286Y-10595952D01*
X16737238Y-10605476D01*
X16680095Y-10605476D01*
X16661048Y-10595952D01*
X16651524Y-10586429D01*
X16870571Y-10605476D02*
X16908667Y-10605476D01*
X16927714Y-10595952D01*
X16937238Y-10586429D01*
X16956286Y-10557857D01*
X16965810Y-10519762D01*
X16965810Y-10443571D01*
X16956286Y-10424524D01*
X16946762Y-10415000D01*
X16927714Y-10405476D01*
X16889619Y-10405476D01*
X16870571Y-10415000D01*
X16861048Y-10424524D01*
X16851524Y-10443571D01*
X16851524Y-10491190D01*
X16861048Y-10510238D01*
X16870571Y-10519762D01*
X16889619Y-10529286D01*
X16927714Y-10529286D01*
X16946762Y-10519762D01*
X16956286Y-10510238D01*
X16965810Y-10491190D01*
X17137238Y-10472143D02*
X17137238Y-10605476D01*
X17089619Y-10395952D02*
X17042000Y-10538810D01*
X17165810Y-10538810D01*
X17232476Y-10405476D02*
X17232476Y-10443571D01*
X17308667Y-10405476D02*
X17308667Y-10443571D01*
X17603905Y-10681667D02*
X17594381Y-10672143D01*
X17575333Y-10643571D01*
X17565810Y-10624524D01*
X17556286Y-10595952D01*
X17546762Y-10548333D01*
X17546762Y-10510238D01*
X17556286Y-10462619D01*
X17565810Y-10434048D01*
X17575333Y-10415000D01*
X17594381Y-10386429D01*
X17603905Y-10376905D01*
X17661048Y-10405476D02*
X17784857Y-10405476D01*
X17718190Y-10481667D01*
X17746762Y-10481667D01*
X17765810Y-10491190D01*
X17775333Y-10500714D01*
X17784857Y-10519762D01*
X17784857Y-10567381D01*
X17775333Y-10586429D01*
X17765810Y-10595952D01*
X17746762Y-10605476D01*
X17689619Y-10605476D01*
X17670571Y-10595952D01*
X17661048Y-10586429D01*
X17956286Y-10405476D02*
X17918190Y-10405476D01*
X17899143Y-10415000D01*
X17889619Y-10424524D01*
X17870571Y-10453095D01*
X17861048Y-10491190D01*
X17861048Y-10567381D01*
X17870571Y-10586429D01*
X17880095Y-10595952D01*
X17899143Y-10605476D01*
X17937238Y-10605476D01*
X17956286Y-10595952D01*
X17965810Y-10586429D01*
X17975333Y-10567381D01*
X17975333Y-10519762D01*
X17965810Y-10500714D01*
X17956286Y-10491190D01*
X17937238Y-10481667D01*
X17899143Y-10481667D01*
X17880095Y-10491190D01*
X17870571Y-10500714D01*
X17861048Y-10519762D01*
X18213429Y-10605476D02*
X18213429Y-10405476D01*
X18299143Y-10605476D02*
X18299143Y-10500714D01*
X18289619Y-10481667D01*
X18270571Y-10472143D01*
X18242000Y-10472143D01*
X18222952Y-10481667D01*
X18213429Y-10491190D01*
X18422952Y-10605476D02*
X18403905Y-10595952D01*
X18394381Y-10586429D01*
X18384857Y-10567381D01*
X18384857Y-10510238D01*
X18394381Y-10491190D01*
X18403905Y-10481667D01*
X18422952Y-10472143D01*
X18451524Y-10472143D01*
X18470571Y-10481667D01*
X18480095Y-10491190D01*
X18489619Y-10510238D01*
X18489619Y-10567381D01*
X18480095Y-10586429D01*
X18470571Y-10595952D01*
X18451524Y-10605476D01*
X18422952Y-10605476D01*
X18603905Y-10605476D02*
X18584857Y-10595952D01*
X18575333Y-10576905D01*
X18575333Y-10405476D01*
X18756286Y-10595952D02*
X18737238Y-10605476D01*
X18699143Y-10605476D01*
X18680095Y-10595952D01*
X18670571Y-10576905D01*
X18670571Y-10500714D01*
X18680095Y-10481667D01*
X18699143Y-10472143D01*
X18737238Y-10472143D01*
X18756286Y-10481667D01*
X18765810Y-10500714D01*
X18765810Y-10519762D01*
X18670571Y-10538810D01*
X18842000Y-10595952D02*
X18861048Y-10605476D01*
X18899143Y-10605476D01*
X18918190Y-10595952D01*
X18927714Y-10576905D01*
X18927714Y-10567381D01*
X18918190Y-10548333D01*
X18899143Y-10538810D01*
X18870571Y-10538810D01*
X18851524Y-10529286D01*
X18842000Y-10510238D01*
X18842000Y-10500714D01*
X18851524Y-10481667D01*
X18870571Y-10472143D01*
X18899143Y-10472143D01*
X18918190Y-10481667D01*
X18994381Y-10681667D02*
X19003905Y-10672143D01*
X19022952Y-10643571D01*
X19032476Y-10624524D01*
X19042000Y-10595952D01*
X19051524Y-10548333D01*
X19051524Y-10510238D01*
X19042000Y-10462619D01*
X19032476Y-10434048D01*
X19022952Y-10415000D01*
X19003905Y-10386429D01*
X18994381Y-10376905D01*
M02*
