%TF.GenerationSoftware,KiCad,Pcbnew,(6.0.8)*%
%TF.CreationDate,2022-12-14T23:26:50+01:00*%
%TF.ProjectId,rugged_nano,72756767-6564-45f6-9e61-6e6f2e6b6963,rev?*%
%TF.SameCoordinates,Original*%
%TF.FileFunction,Legend,Top*%
%TF.FilePolarity,Positive*%
%FSLAX46Y46*%
G04 Gerber Fmt 4.6, Leading zero omitted, Abs format (unit mm)*
G04 Created by KiCad (PCBNEW (6.0.8)) date 2022-12-14 23:26:50*
%MOMM*%
%LPD*%
G01*
G04 APERTURE LIST*
%ADD10C,0.200000*%
%ADD11C,0.120000*%
%ADD12C,0.100000*%
%ADD13C,0.150000*%
%ADD14C,0.310000*%
G04 APERTURE END LIST*
D10*
X149520000Y-66902857D02*
X149520000Y-65702857D01*
X149805714Y-65702857D01*
X149977142Y-65760000D01*
X150091428Y-65874285D01*
X150148571Y-65988571D01*
X150205714Y-66217142D01*
X150205714Y-66388571D01*
X150148571Y-66617142D01*
X150091428Y-66731428D01*
X149977142Y-66845714D01*
X149805714Y-66902857D01*
X149520000Y-66902857D01*
X151234285Y-66902857D02*
X151234285Y-66274285D01*
X151177142Y-66160000D01*
X151062857Y-66102857D01*
X150834285Y-66102857D01*
X150720000Y-66160000D01*
X151234285Y-66845714D02*
X151120000Y-66902857D01*
X150834285Y-66902857D01*
X150720000Y-66845714D01*
X150662857Y-66731428D01*
X150662857Y-66617142D01*
X150720000Y-66502857D01*
X150834285Y-66445714D01*
X151120000Y-66445714D01*
X151234285Y-66388571D01*
X152320000Y-66845714D02*
X152205714Y-66902857D01*
X151977142Y-66902857D01*
X151862857Y-66845714D01*
X151805714Y-66788571D01*
X151748571Y-66674285D01*
X151748571Y-66331428D01*
X151805714Y-66217142D01*
X151862857Y-66160000D01*
X151977142Y-66102857D01*
X152205714Y-66102857D01*
X152320000Y-66160000D01*
X152662857Y-66102857D02*
X153120000Y-66102857D01*
X152834285Y-65702857D02*
X152834285Y-66731428D01*
X152891428Y-66845714D01*
X153005714Y-66902857D01*
X153120000Y-66902857D01*
X154320000Y-66102857D02*
X154605714Y-66902857D01*
X154891428Y-66102857D01*
X155977142Y-66902857D02*
X155291428Y-66902857D01*
X155634285Y-66902857D02*
X155634285Y-65702857D01*
X155520000Y-65874285D01*
X155405714Y-65988571D01*
X155291428Y-66045714D01*
D11*
%TO.C,R32*%
X153347500Y-85322742D02*
X153347500Y-85797258D01*
X154392500Y-85322742D02*
X154392500Y-85797258D01*
%TO.C,C1*%
X147729420Y-65800000D02*
X148010580Y-65800000D01*
X147729420Y-66820000D02*
X148010580Y-66820000D01*
%TO.C,D26*%
X145635000Y-86075000D02*
X145635000Y-88360000D01*
X147105000Y-86075000D02*
X145635000Y-86075000D01*
X147105000Y-88360000D02*
X147105000Y-86075000D01*
%TO.C,C14*%
X147729420Y-78350000D02*
X148010580Y-78350000D01*
X147729420Y-79370000D02*
X148010580Y-79370000D01*
%TO.C,R31*%
X147607258Y-85832500D02*
X147132742Y-85832500D01*
X147607258Y-84787500D02*
X147132742Y-84787500D01*
D12*
%TO.C,J3*%
X153295000Y-57722500D02*
X145945000Y-57722500D01*
D11*
X153760000Y-56322500D02*
X153760000Y-55072500D01*
X145510000Y-56322500D02*
X145510000Y-55072500D01*
%TO.C,R33*%
X151182742Y-87537500D02*
X151657258Y-87537500D01*
X151182742Y-88582500D02*
X151657258Y-88582500D01*
D13*
%TO.C,U1*%
X145995000Y-69185000D02*
X146320000Y-69185000D01*
X153245000Y-69185000D02*
X153245000Y-69510000D01*
X153245000Y-76435000D02*
X152920000Y-76435000D01*
X145995000Y-69185000D02*
X145995000Y-69510000D01*
X153245000Y-69185000D02*
X152920000Y-69185000D01*
X153245000Y-76435000D02*
X153245000Y-76110000D01*
D14*
X145775000Y-76810000D02*
G75*
G03*
X145775000Y-76810000I-155000J0D01*
G01*
D11*
%TO.C,R11*%
X154132742Y-83832500D02*
X154607258Y-83832500D01*
X154132742Y-82787500D02*
X154607258Y-82787500D01*
%TO.C,D13*%
X151120000Y-79810000D02*
X151120000Y-78810000D01*
X151120000Y-78810000D02*
X151920000Y-79287500D01*
X151920000Y-79912500D02*
X151920000Y-78662500D01*
X151920000Y-79287500D02*
X151120000Y-79810000D01*
%TO.C,C9*%
X146130000Y-65169420D02*
X146130000Y-65450580D01*
X145110000Y-65169420D02*
X145110000Y-65450580D01*
%TO.C,D12*%
X151120000Y-81810000D02*
X151120000Y-80810000D01*
X151120000Y-80810000D02*
X151920000Y-81287500D01*
X151920000Y-81287500D02*
X151120000Y-81810000D01*
X151920000Y-81912500D02*
X151920000Y-80662500D01*
%TO.C,D11*%
X151120000Y-82810000D02*
X151920000Y-83287500D01*
X151120000Y-83810000D02*
X151120000Y-82810000D01*
X151920000Y-83287500D02*
X151120000Y-83810000D01*
X151920000Y-83912500D02*
X151920000Y-82662500D01*
%TO.C,F1*%
X143510000Y-84662064D02*
X143510000Y-83457936D01*
X145330000Y-84662064D02*
X145330000Y-83457936D01*
%TO.C,F3*%
X152110000Y-61207936D02*
X152110000Y-62412064D01*
X153930000Y-61207936D02*
X153930000Y-62412064D01*
%TO.C,R23*%
X151107258Y-65332500D02*
X150632742Y-65332500D01*
X151107258Y-64287500D02*
X150632742Y-64287500D01*
D10*
%TO.C,Y2*%
X146320000Y-61610000D02*
X145920000Y-61210000D01*
D11*
X145470000Y-63410000D02*
X146770000Y-63410000D01*
D10*
X146320000Y-62410000D02*
X146720000Y-62010000D01*
X145920000Y-61210000D02*
X145520000Y-61610000D01*
D11*
X145470000Y-60210000D02*
X146770000Y-60210000D01*
D10*
X146295000Y-61135000D02*
X146545000Y-61385000D01*
X146320000Y-61610000D02*
X146720000Y-62010000D01*
X145920000Y-62010000D02*
X146320000Y-62410000D01*
X146570000Y-61360000D02*
X146770000Y-61160000D01*
X146545000Y-61385000D02*
X146795000Y-61635000D01*
X145445000Y-61985000D02*
X145695000Y-62235000D01*
X145695000Y-62235000D02*
X145945000Y-62485000D01*
D11*
X148620000Y-61960000D02*
X148620000Y-61660000D01*
X143620000Y-61960000D02*
X143620000Y-61660000D01*
D10*
X145670000Y-62260000D02*
X145470000Y-62460000D01*
X145920000Y-62010000D02*
X145520000Y-61610000D01*
D11*
%TO.C,R13*%
X154132742Y-78787500D02*
X154607258Y-78787500D01*
X154132742Y-79832500D02*
X154607258Y-79832500D01*
%TO.C,R30*%
X147132742Y-83287500D02*
X147607258Y-83287500D01*
X147132742Y-84332500D02*
X147607258Y-84332500D01*
%TO.C,R24*%
X153347500Y-88797258D02*
X153347500Y-88322742D01*
X154392500Y-88797258D02*
X154392500Y-88322742D01*
%TO.C,R29*%
X151642500Y-60822742D02*
X151642500Y-61297258D01*
X150597500Y-60822742D02*
X150597500Y-61297258D01*
%TO.C,C12*%
X144530000Y-65169420D02*
X144530000Y-65450580D01*
X143510000Y-65169420D02*
X143510000Y-65450580D01*
%TO.C,J2*%
D14*
X154000000Y-92045000D02*
G75*
G03*
X154000000Y-92045000I-155000J0D01*
G01*
D11*
%TO.C,D29*%
X151155000Y-84325000D02*
X149685000Y-84325000D01*
X149685000Y-84325000D02*
X149685000Y-86610000D01*
X151155000Y-86610000D02*
X151155000Y-84325000D01*
%TO.C,R25*%
X144642500Y-88047258D02*
X144642500Y-87572742D01*
X143597500Y-88047258D02*
X143597500Y-87572742D01*
%TO.C,D30*%
X154620000Y-62060000D02*
X155097500Y-61260000D01*
X155620000Y-62060000D02*
X154620000Y-62060000D01*
X155097500Y-61260000D02*
X155620000Y-62060000D01*
X155722500Y-61260000D02*
X154472500Y-61260000D01*
%TO.C,C8*%
X147729420Y-65070000D02*
X148010580Y-65070000D01*
X147729420Y-64050000D02*
X148010580Y-64050000D01*
%TO.C,D28*%
X153155000Y-86610000D02*
X153155000Y-84325000D01*
X153155000Y-84325000D02*
X151685000Y-84325000D01*
X151685000Y-84325000D02*
X151685000Y-86610000D01*
%TO.C,D27*%
X147635000Y-86075000D02*
X147635000Y-88360000D01*
X149105000Y-86075000D02*
X147635000Y-86075000D01*
X149105000Y-88360000D02*
X149105000Y-86075000D01*
%TO.C,R12*%
X154132742Y-80787500D02*
X154607258Y-80787500D01*
X154132742Y-81832500D02*
X154607258Y-81832500D01*
%TO.C,C7*%
X150155000Y-62119420D02*
X150155000Y-62400580D01*
X149135000Y-62119420D02*
X149135000Y-62400580D01*
%TD*%
M02*
